<?xml version="1.0" standalone="no"?>
<!DOCTYPE svg PUBLIC "-//W3C//DTD SVG 1.1//EN" "http://www.w3.org/Graphics/SVG/1.1/DTD/svg11.dtd" >
<svg xmlns="http://www.w3.org/2000/svg" xmlns:xlink="http://www.w3.org/1999/xlink" version="1.1">
<metadata>
Created by FontForge 20161003 at Wed Jan  2 09:29:34 2019
 By www-data
Copyright (c) 2018 by Brian Jacob. All rights reserved.
</metadata>
<defs>
<font id="KotoriRoseBold" horiz-adv-x="0" >
  <font-face 
    font-family="KotoriRoseBold"
    font-weight="700"
    font-stretch="normal"
    units-per-em="1024"
    panose-1="0 0 0 0 0 0 0 0 0 0"
    ascent="819"
    descent="-205"
    x-height="551"
    cap-height="716"
    bbox="-18 -233 1054 1006"
    underline-thickness="1"
    underline-position="-2"
    unicode-range="U+000D-203A"
  />
<missing-glyph horiz-adv-x="543" 
d="M0 51v641h410v-641h-410zM51 505v-403h307v539h-307v-136z" />
    <glyph glyph-name=".notdef" horiz-adv-x="543" 
d="M0 51v641h410v-641h-410zM51 505v-403h307v539h-307v-136z" />
    <glyph glyph-name=".null" 
 />
    <glyph glyph-name="nonmarkingreturn" horiz-adv-x="341" 
 />
    <glyph glyph-name="NULL" 
 />
    <glyph glyph-name="NULL" 
 />
    <glyph glyph-name="CR" unicode="&#xd;" 
 />
    <glyph glyph-name="space" unicode=" " horiz-adv-x="270" 
 />
    <glyph glyph-name="exclam" unicode="!" horiz-adv-x="323" 
d="M82 0v143h154v-143h-154zM83 467v250h154v-500h-154v250z" />
    <glyph glyph-name="quotedbl" unicode="&#x22;" horiz-adv-x="443" 
d="M371 441h-122v275h122v-275zM195 441h-122v206v69h122v-275z" />
    <glyph glyph-name="numbersign" unicode="#" horiz-adv-x="765" 
d="M320 303h110l24 121h-109l-10 -51q-1 -7 -6.5 -31t-8.5 -39zM515 -16l-145 28l30 151h-108l-36 -179l-61 11l-85 17l30 151h-90v70v71h119l24 121h-84v142h113l36 182l145 -28q-7 -34 -13.5 -66t-11.5 -56t-6 -31h109l36 181l145 -28l-30 -153h84v-142h-113l-10 -50
q-1 -7 -6.5 -31.5t-8.5 -39.5h78v-142h-105z" />
    <glyph glyph-name="dollar" unicode="$" horiz-adv-x="650" 
d="M429 205v2q-2 12 -4 16q-4 9 -9 13l-11 10q-4 3 -12 7l-9 3l-5 3l-7 2l-2 -49l-2 -68l8 2l8 4l7 3l8 4q3 2 7.5 6t5.5 4q5 4 10 12q3 5 5 13t2 13zM277 453l8 -3l2 53l3 75l-8 -2l-2 -2q-3 -1 -5 -2l-13 -9q-10 -8 -14 -13t-10 -15q-5 -12 -5 -13q-1 -4 -1 -12v-5
q2 -10 4 -14q1 -2 8 -14q6 -8 11 -11l15 -10q6 -2 7 -3zM474 25l-28 -14q-6 -3 -28 -10q-17 -5 -29 -8q-13 -4 -29 -6q0 -3 -0.5 -11t-0.5 -13q0 -20 -1 -33l-94 6q1 6 1 23q0 19 1 32q-33 6 -65 17q-33 12 -56 25l-43 27q-19 11 -26 18l-23 18q6 7 19 24.5t19 24.5l54 69
l23 -18l13 -9l23 -15q11 -7 32 -16q20 -9 37 -13l5 149l-39 15l-19 8q-2 1 -8 3.5t-9 4.5q-31 17 -47 30q-18 15 -36 40q-16 22 -25 46q-10 24 -12 50q-3 29 1 53q4 26 15 51q9 22 28 46q13 17 40 41q4 4 20 14q19 12 28 16q20 9 36 14q21 7 43 8q0 3 0.5 10.5t0.5 12.5
q0 20 1 33l93 -5q-1 -7 -1 -24q0 -20 -1 -33l35 -11l36 -15q11 -5 35 -19q12 -7 36 -23l24 -16l-86 -123l-24 16l-25 16l-17 10l-19 8l-5 -153q4 -1 11.5 -3t11.5 -4l21 -8l19 -7q12 -4 17 -7q24 -10 50 -31q19 -15 38 -41q14 -20 23 -49q8 -29 11 -53q1 -1 1 -4v-5
q0 -27 -7 -51q-7 -26 -19 -47q-12 -23 -34 -45q-26 -26 -46 -36z" />
    <glyph glyph-name="percent" unicode="%" horiz-adv-x="839" 
d="M653 173q-11 0 -19 -5t-11 -14l-4 -16q-1 -5 -1 -11q0 -8 2 -18q2 -5 8 -15q4 -6 11 -10q7 -3 14 -3t15 3q7 4 11 10q3 5 7 15q2 10 2 18q0 4 -1 8q-4 15 -4 17q-2 11 -10 16t-20 5zM653 -52q-36 0 -66 13q-29 13 -55 39q-24 24 -37 58q-13 30 -13 69q0 38 12 70
q13 34 37 58t55 38q29 13 67 13t67 -13q31 -14 55 -38t37 -58q12 -32 12 -70q0 -39 -13 -69q-13 -34 -37 -58q-26 -26 -55 -39t-66 -13zM189 618q-12 0 -20 -5t-11 -14q-1 -4 -2.5 -9.5t-1.5 -7.5q-1 -4 -1 -10q0 -8 2 -18q2 -5 8 -15q4 -6 11 -10q8 -3 15 -3q8 0 14 3
q7 4 11 10q6 10 7 15q2 10 2 18q0 4 -1 8l-3 17q-2 11 -10 16t-20 5zM189 393q-38 0 -67 13t-55 39q-24 24 -37 58q-12 31 -12 70t12 70q13 34 37 58q27 27 55 38q29 13 67 13q37 0 67 -13q28 -11 55 -38q24 -24 37 -58q12 -30 12 -66v-4q0 -36 -13 -70q-15 -35 -38 -58
q-26 -26 -55 -39t-65 -13zM200 -59q-23 17 -52 40t-45 35t-25 19l563 738l122 -94z" />
    <glyph glyph-name="ampersand" unicode="&#x26;" horiz-adv-x="881" 
d="M189 168q7 -7 16 -13q11 -7 21 -11q16 -6 25 -7q18 -2 27 -2q7 0 21 2q12 2 20 5q12 3 19 7l17 9q15 8 27 18q13 10 21 19l14 15l5 5q-13 7 -46 29q-63 40 -65 41q-12 9 -27 10q-10 4 -34 4h-1q-18 0 -33 -5q-15 -6 -26 -17q-8 -8 -14 -20q-5 -12 -8 -26q-1 -2 -1 -6
q-1 -2 -1 -6q0 -13 6 -26q4 -9 17 -25zM808 -25q-153 95 -262 165q-22 -30 -52 -58q-28 -26 -49 -38l-40 -23q-4 -2 -29 -13q-30 -11 -62 -16q-28 -3 -59 2q-32 5 -49 9q-22 5 -31 9q-23 9 -36 17q-14 8 -30 20q-9 7 -24 22q-11 11 -19 22q-16 22 -24 40q-10 21 -11 38
q0 4 -4 26l-1 9q0 4 -1 9v21v4q0 13 3 28q3 16 9 33l8 20q1 3 11 20l15 20q5 7 18 20l26 21l14 9l14 8q-12 17 -22 39q-8 16 -13 40q-4 21 -3 43q2 24 7 44q4 17 16 40q12 22 26 36q18 18 34 30q20 13 40 20q9 4 17 5l17 4l18 2q6 1 17 1q18 0 36 -3t36 -9t36 -15
q20 -10 35 -21l18 -13l26 -18l-86 -119q-37 25 -43 30q-20 13 -30 16q-14 6 -23 5q-7 -1 -15 -1q-7 0 -8 -1l-8 -4q-3 -1 -8 -6l-5 -7l-4 -8q-4 -10 -1 -22q2 -13 12 -23l20 -21q11 -11 23 -19l13 -9l13 -8q10 -6 12 -8q1 -1 5 -3.5t6 -4.5q31 -20 61 -38.5t52.5 -32.5
t29.5 -18q28 47 54 91.5t45.5 79t25.5 44.5l128 -74l-128 -220l262 -163l-33 -52z" />
    <glyph glyph-name="quotesingle" unicode="'" horiz-adv-x="267" 
d="M195 441h-122v206v69h122v-275z" />
    <glyph glyph-name="parenleft" unicode="(" horiz-adv-x="371" 
d="M230 -130l-22 20q-50 46 -79 93q-35 54 -56 109q-24 62 -35 122q-11 68 -11 134t12 131q11 60 35 125q22 59 57 113q39 60 75 98l21 23l47 -46l67 -63l-9 -9l-13 -13q-28 -28 -57 -74q-23 -37 -43 -88q-18 -46 -27 -97q-9 -50 -9 -100q0 -52 9 -100q9 -46 26 -92
q17 -45 42 -83q26 -39 58 -69q15 -15 23 -21q-55 -57 -111 -113z" />
    <glyph glyph-name="parenright" unicode=")" horiz-adv-x="371" 
d="M160 -110l-22 -21l-46 47q-54 57 -64 67l22 20q32 29 58 69q25 38 42 83q17 46 26 92q9 48 9 100q0 51 -9 100q-9 51 -27 97q-20 51 -43 88t-57 74q-18 18 -21 22l113 109l21 -23q36 -38 75 -98q35 -54 57 -113q24 -65 35 -125q12 -64 12 -131t-11 -133q-11 -60 -35 -122
q-22 -57 -57 -109q-40 -58 -78 -93z" />
    <glyph glyph-name="asterisk" unicode="*" horiz-adv-x="467" 
d="M398 596q-37 -19 -51 -26l-36 -18q37 -19 51 -26l36 -18q-12 -23 -26.5 -48.5t-16.5 -28.5l-82 54l3 -58l2 -40h-88l6 98l-82 -54l-44 77l88 44l-88 44q2 4 12 20t14 24l18 31l82 -54l-6 98h88l-5 -98l82 54q1 -2 25 -43z" />
    <glyph glyph-name="plus" unicode="+" horiz-adv-x="598" 
d="M374 134h-150v152h-158v113v38h158v152h150v-152h158v-151h-158v-152z" />
    <glyph glyph-name="comma" unicode="," horiz-adv-x="272" 
d="M127 -94l-127 72q108 193 122 217l128 -72q-85 -151 -123 -217z" />
    <glyph glyph-name="hyphen" unicode="-" horiz-adv-x="502" 
d="M398 215h-294v181h294v-181z" />
    <glyph glyph-name="period" unicode="." horiz-adv-x="295" 
d="M73 0v107v36h156v-143h-156z" />
    <glyph glyph-name="slash" unicode="/" horiz-adv-x="629" 
d="M608 748q-221 -433 -443 -865l-136 69l185 360q37 71 122.5 239t135.5 266q13 -6 57 -29q13 -6 40.5 -20t38.5 -20z" />
    <glyph glyph-name="zero" unicode="0" horiz-adv-x="707" 
d="M357 567q-20 0 -35 -4q-20 -5 -30 -11q-14 -8 -26 -20q-14 -12 -22 -27q-7 -9 -17 -31q-10 -21 -13 -36q-6 -26 -8 -39q-2 -26 -2 -39q0 -37 6 -67q7 -31 19 -52q13 -23 27 -39q14 -17 31 -28q6 -4 18 -10q9 -4 18 -6l17 -5q6 -1 17 -1t17 1t18 5q6 2 18 8t18 11
q13 8 31 28q15 20 27 40q12 21 19 52q6 29 6 63v3q0 21 -4 41q-3 25 -10 44q-8 25 -18 44q-12 21 -28 37q-8 9 -19 16q-9 6 -22 12q-12 5 -25 8q-18 2 -28 2zM357 -4q-33 0 -68 8t-63 22q-32 16 -56 37q-25 22 -47 50q-18 23 -34 54q-16 33 -25 61q-10 31 -15 65
q-5 37 -5 67q0 31 5 69q5 34 15 65q12 35 24 61q14 27 34 53q25 32 47 50q25 22 56 36q28 14 63 22t69 8q36 0 73 -8q31 -7 66 -25q30 -16 57 -41q28 -28 48 -56q19 -29 29 -52q13 -25 22 -58q9 -27 14 -62t5 -63q0 -27 -5 -60q-5 -35 -14 -61q-12 -36 -23 -58
q-12 -25 -30 -53q-24 -34 -49 -56q-27 -25 -57 -41q-34 -18 -65 -26q-37 -8 -71 -8z" />
    <glyph glyph-name="one" unicode="1" horiz-adv-x="413" 
d="M319 0h-147v569h-73v147h220v-716z" />
    <glyph glyph-name="two" unicode="2" horiz-adv-x="620" 
d="M555 0h-493v128l5 4q3 3 6 4l12 11q30 26 37 32l51 44l56 50l76 67l62 56q13 13 22 25q7 8 13 22q3 7 5 21t2 20q0 7 -2 19t-5 17l-8 15l-8 10q-9 7 -20 15q-10 6 -16 9l-15 4q-5 1 -18 1h-2h-3q-12 0 -24 -4q-15 -4 -26 -10q-14 -8 -25 -16q-11 -7 -23 -19l-59 -58
l-102 101l58 59q19 18 41 35q22 15 45 27q28 13 47 19q22 7 49 10q3 1 7 1h8q3 1 8 1h7q22 0 47 -5q23 -5 44 -13q22 -9 41 -22q24 -18 35 -29q15 -14 31 -37q15 -21 23 -42q8 -19 13 -43q5 -23 5 -44v-4q0 -19 -6 -41q-4 -19 -14 -47q-12 -30 -29 -53q-21 -27 -49 -54
q-16 -15 -30.5 -28t-26 -23.5t-14.5 -13.5l-84 -75h246v-146z" />
    <glyph glyph-name="three" unicode="3" horiz-adv-x="605" 
d="M313 -4q-31 0 -45 2q-20 3 -39 9q-17 5 -38 14t-34 17q-27 15 -54 35t-41 37q-11 13 -26 28l-9 10q12 11 45 44l62 62q2 -3 7 -8l22 -23q15 -16 33 -29q22 -16 39 -25l18 -9q7 -4 19 -7q7 -3 20 -5q14 -2 20 -2q8 0 13 1q1 0 7.5 1.5t10.5 2.5q10 1 19 9q7 5 20 18l10 14
q2 3 7 16q2 5 4 17q2 8 0 16q0 6 -2 16q-2 9 -5 14q-6 10 -8 12l-10 11q-7 7 -17 12l-16 8q-9 4 -16 5q-10 2 -16 2q-15 0 -22 -1q-10 -1 -19 -5q-2 -1 -13 -5l-4 -2l-99 94q2 2 6 7l19 19l59 62l38 40q31 31 37 38h-246v147h468v-134l-5 -5q-2 -1 -4 -3.5t-5.5 -6
l-6.5 -6.5l-48 -49l-29 -30l-28 -28q3 -2 9 -4.5t8 -3.5l16 -9l16 -11q15 -12 16 -13q18 -15 31 -32q13 -15 25 -38q10 -18 16 -42q7 -25 8 -45q1 -3 1 -10v-9q0 -20 -3 -38q-3 -21 -10 -37q-6 -19 -20 -43q-14 -23 -28 -38l-20 -22l-22 -17l-22 -14q-14 -8 -21 -11
q-21 -10 -37 -14q-10 -3 -31 -5q-9 -1 -22 -1h-8z" />
    <glyph glyph-name="four" unicode="4" horiz-adv-x="602" 
d="M495 0h-148v123h-295v127q55 84 172.5 263t158.5 243q33 -23 51 -34l72 -46l-263 -414h104v85h148v-85h64v-139h-64v-123z" />
    <glyph glyph-name="five" unicode="5" horiz-adv-x="610" 
d="M326 -4q-13 0 -39 2q-13 2 -37 8q-17 4 -34 12q-1 1 -13.5 6t-17.5 8q-21 10 -49 30q-26 19 -38 31l-24 24l-8 8q12 11 45 44l62 63l5 -5q1 -1 5.5 -6.5t7.5 -9.5q9 -11 21 -21q8 -8 27 -20l18 -9l20 -8q7 -3 21 -5t23 -2q5 0 19 2q10 2 20 6q14 6 20 10t16 14
q13 13 18 31q5 21 4 38q-2 21 -9 37q-8 17 -20 28l-10 7q-10 7 -16 10q-13 6 -25 8q-14 3 -33 3q-10 0 -28 -2q-12 -3 -28 -8q-12 -4 -25 -12q-5 -3 -13 -9t-9 -7l-50 34q-23 15 -70 48v331h445v-146h-297v-105l24 4q10 2 19 2l21 2q15 1 46 -1q13 -1 52 -7q24 -4 53 -19
q28 -15 48 -35q37 -35 55 -73q20 -42 20 -89v-15q0 -44 -15 -83q-15 -37 -44 -71q-16 -19 -37 -35q-20 -16 -44 -27q-19 -9 -49 -16q-28 -5 -53 -5z" />
    <glyph glyph-name="six" unicode="6" horiz-adv-x="645" 
d="M325 379q-22 0 -44 -8q-21 -9 -38 -26t-26 -38q-8 -22 -8 -44q0 -23 8 -44q9 -21 26 -38t38 -26q22 -8 44 -8q23 0 44 8q21 9 38 26t26 38q8 21 8 41v3q0 21 -9 44q-9 21 -26 38q-18 18 -37 26q-21 8 -44 8zM325 -4q-12 0 -38 2q-13 2 -37 8q-14 4 -35 13q-18 8 -31 16
q-30 19 -52 41q-25 27 -40 54q-18 32 -26 64q-9 33 -9 70q0 22 3 42q3 22 10 39q5 12 10 27l3 9l79 151q108 209 109 211l59 -29l82 -42q-13 -25 -29 -56t-27 -51.5t-18 -34.5q30 -2 37 -4l35 -9q11 -4 33 -14q20 -9 30 -17q26 -17 49 -42q22 -25 38 -53t24 -61q8 -34 8 -67
q0 -34 -8 -69q-9 -31 -26 -63q-15 -27 -40 -54q-26 -26 -52 -41q-13 -9 -32 -17q-21 -9 -35 -13q-21 -6 -36 -8q-24 -2 -38 -2z" />
    <glyph glyph-name="seven" unicode="7" horiz-adv-x="593" 
d="M63 48l265 521h-294v73v54v19h546l-379 -738l-58 29z" />
    <glyph glyph-name="eight" unicode="8" horiz-adv-x="657" 
d="M326 573q-15 0 -26 -4q-7 -3 -21 -13q-10 -9 -15 -20q-5 -12 -5 -23q0 -12 5 -24t15 -19q12 -10 21 -14q11 -4 26 -4q16 0 25 4q10 4 22 14q8 6 14 19q5 12 5 24q0 11 -5 23q-5 13 -14 20q-14 10 -22 13q-9 4 -25 4zM326 316q-22 0 -41 -6q-18 -5 -35 -18
q-16 -14 -24 -27q-8 -16 -8 -32t8 -32q8 -14 24 -26q16 -13 35 -19t41 -6t41 6t35 19q14 10 23 26q8 16 8 32t-8 32q-8 15 -23 27q-17 13 -35 18q-20 6 -41 6zM326 -4q-13 0 -37 2q-24 4 -35 7q-15 4 -34 11l-31 15q-22 11 -50 37q-23 22 -39 48q-18 27 -25 55q-8 27 -8 61
q0 22 5 47t14 44q12 24 23 40q13 18 32 36l-15 26q-4 9 -10 29q-4 13 -6 29q-2 20 -2 30q0 46 16 82t48 68q29 29 71 47q36 16 83 16q45 0 83 -16q42 -18 71 -47q34 -34 49 -68q16 -36 16 -82q0 -11 -2 -31q-1 -11 -7 -29l-11 -28l-15 -27q21 -19 32 -35q12 -17 23 -41
q11 -23 15 -44q5 -25 5 -46v-2q0 -30 -8 -60q-9 -29 -26 -55q-17 -27 -39 -47q-28 -26 -50 -37l-31 -15q-22 -8 -33 -11t-35 -7q-24 -2 -37 -2z" />
    <glyph glyph-name="nine" unicode="9" horiz-adv-x="644" 
d="M319 566q-22 0 -43 -8q-18 -7 -35 -24t-24 -35q-8 -21 -8 -43q0 -21 8 -42q7 -18 24 -35t35 -24q21 -8 43 -8q21 0 42 8q19 7 36 24t24 35q8 21 8 42q0 22 -8 43q-7 18 -24 35q-17 16 -36 24q-21 8 -42 8zM357 -25l-146 74l83 157q-48 4 -91 26q-41 20 -75 57
q-33 36 -50 80q-17 45 -17 94q0 13 2 37q2 15 8 35q5 19 12 34q9 19 16 30q14 24 40 50q23 22 53 39q31 18 60 25q34 8 67 8q32 0 66 -8q30 -7 61 -25t52 -39q26 -26 40 -50q7 -11 16 -30q10 -22 13 -33q6 -20 8 -35q2 -24 2 -37q0 -12 -2 -34q-1 -13 -7 -34q-4 -16 -12 -33
l-15 -31q-11 -23 -39.5 -76.5t-37.5 -71.5z" />
    <glyph glyph-name="colon" unicode=":" horiz-adv-x="317" 
d="M68 41v144h155v-144h-155zM66 346v108v36h155v-144h-155z" />
    <glyph glyph-name="semicolon" unicode=";" horiz-adv-x="306" 
d="M92 346v144h155v-144h-155zM127 -94l-127 72q108 193 122 217l127 -72q-108 -193 -122 -217z" />
    <glyph glyph-name="less" unicode="&#x3c;" horiz-adv-x="554" 
d="M42 343v124q69 42 151 94l211 133q12 -17 31 -49l43 -69l-260 -171l109 -71q70 -46 151 -101q-63 -101 -74 -118l-151 95z" />
    <glyph glyph-name="equal" unicode="=" horiz-adv-x="601" 
d="M51 170v94v32h499v-126h-499zM51 425v94v32h499v-126h-499z" />
    <glyph glyph-name="greater" unicode="&#x3e;" horiz-adv-x="557" 
d="M514 343l-363 -228l-73 118q224 147 261 172q-197 127 -261 171l73 118l211 -133l152 -94v-124z" />
    <glyph glyph-name="question" unicode="?" horiz-adv-x="537" 
d="M499 450q-5 -22 -12 -41q-8 -22 -21 -40q-18 -26 -29 -37q-15 -17 -36 -31q-9 -6 -24 -13q-10 -5 -25 -10q-19 -6 -26 -7q-18 -2 -29 -2v-56h-155v211q2 0 6 -1q14 -3 18 -4q10 -2 28 -4l32 -2h19l19 2l20 3q9 1 20 6l16 9q9 5 13 12q7 12 8 14q4 7 6 16q2 12 1 18
q-2 12 -4 19q-3 12 -7 18q-6 10 -10 14q-5 6 -13 11q-8 6 -13 8q-10 4 -15 5q-10 2 -16 2q-13 0 -19 -1q-8 -1 -17 -5q-9 -2 -16 -6l-15 -8q-15 -8 -25 -17q-12 -9 -19 -17l-12 -13l-4 -4l-108 108l7 7l21 22q15 14 34 28q23 16 44 27q14 8 28 12q15 7 31 11q11 3 33 7
q17 3 36 3q23 0 48 -5q27 -5 44 -14q22 -9 40 -22q16 -11 36 -31q19 -18 32 -41q15 -25 22 -49q6 -24 8 -37q3 -20 3 -38q0 -12 -1 -18zM142 -2v143h155v-143h-155z" />
    <glyph glyph-name="at" unicode="@" horiz-adv-x="912" 
d="M465 431q-9 0 -13 -1l-11 -3l-11 -5q-9 -6 -10 -7h-1v-1l-15 -14q-7 -8 -11 -17q-3 -5 -5 -16q-2 -10 -2 -16v-6q0 -9 3 -17q4 -10 7 -15l9 -13q5 -4 12 -9q5 -4 11 -5l10 -3l11 -3h11q7 0 19 2q10 2 17 6l15 8q7 4 12 9v103l-6 5l-8 6q-1 0 -4.5 1.5t-5.5 2.5l-11 4
q-2 0 -5 1q-4 0 -5 1q-2 1 -6 1q-2 1 -7 1zM460 -26q-46 0 -92 11t-86 33q-43 24 -74 52q-35 31 -60 67q-20 29 -26 41q-11 20 -19 45q-10 25 -14 48q-7 29 -8 50q-1 5 -1 17q-1 6 -1 17q0 27 5 62q4 31 15 60q14 39 33 71q18 32 47 64q29 30 59 52q29 21 68 38q42 18 76 25
q40 8 78 8q53 0 98 -13q46 -12 89 -37q42 -25 77 -58q35 -35 59 -73q14 -24 24 -46q13 -28 19 -48q5 -16 11 -52q4 -23 4 -54q0 -64 -13 -106q-14 -44 -39 -69q-26 -26 -54 -38q-27 -13 -57 -13q-18 0 -31 4q-13 1 -29 10q-18 10 -26 16q-14 10 -24 22q-10 -6 -17 -9
q-17 -7 -26 -10q-22 -6 -34 -8q-20 -3 -38 -2l-23 2q-7 1 -23 5q-9 2 -25 8q-11 4 -26 12q-22 11 -38 27q-17 17 -30 37q-11 17 -20 44q-9 26 -10 49q-2 30 2 52q4 21 16 49q11 25 27 44q16 21 37 37q11 9 28 18t30 13q16 6 33 9t34 3q9 0 14 -1q5 0 15 -2l16 -2l14 -4
q19 -5 43 -17q22 -12 37 -27q16 -17 30 -33q10 -14 19 -35v-7v-20v-59v-39v-28q0 -6 2 -12t5 -9q5 -5 8 -6q6 -2 8 -2q10 0 18 11q6 9 11 33q3 14 5 40q2 23 1 32q-1 11 -5 33l-9 32q-3 9 -14 30q-5 10 -17 28q-20 29 -39 45q-25 22 -49 35q-26 15 -56 23q-27 7 -59 7
q-29 0 -54 -6q-24 -4 -49 -16q-22 -10 -45 -26q-21 -14 -39 -33q-17 -18 -31 -42q-16 -27 -22 -47q-9 -29 -11 -50q-3 -23 -1 -53q5 -51 23 -89q19 -39 57 -74q36 -33 79 -50t91 -17q11 0 28 3q15 3 37 9q12 3 31 8l10 3l45 -120q0 -1 -10 -5l-32 -12q-15 -6 -48 -11
q-25 -4 -62 -4z" />
    <glyph glyph-name="A" unicode="A" horiz-adv-x="705" 
d="M450 272l-42 103l-55 138q-5 -11 -18 -44t-20 -51l-50 -127q38 -5 79 -8q73 -6 106 -11zM713 1h-153l-58 141l-283 32l-70 -174h-157l120 298q100 249 167 417h147z" />
    <glyph glyph-name="B" unicode="B" horiz-adv-x="667" 
d="M231 433h147q15 0 28 5q13 7 20 16q7 8 13 22q4 9 4 23q0 12 -5 27q-5 10 -17 22q-9 8 -25 14q-17 5 -32 5h-133v-106v-28zM232 148h158q16 0 31 5q13 5 24 15q12 12 17 22q5 13 5 26q0 14 -5 27q-4 10 -16 22q-8 9 -25 14q-15 5 -30 5h-159v-50v-86zM84 0q-1 190 -1 380
v335h281q46 0 82 -16q38 -15 70 -47t47 -70q16 -36 16 -82q0 -18 -3 -35t-9 -33q-4 -13 -13 -30q-5 -9 -19 -27q17 -13 32 -31q12 -15 22 -36t14 -43q4 -20 4 -48q0 -47 -16 -85q-15 -38 -46 -69q-28 -28 -70 -46q-40 -16 -85 -16h-306v-1z" />
    <glyph glyph-name="C" unicode="C" horiz-adv-x="750" 
d="M416 -15q-24 0 -52 5q-28 3 -51 10q-25 8 -48 18q-24 11 -44 24q-39 25 -71 58t-57 75q-24 41 -36 87t-12 96t12 96t36 87q25 42 57 75t71 58q20 13 44 24q17 8 48 17q17 5 51 11q23 4 52 4q40 0 72 -7q32 -6 69 -20q31 -12 63 -34q29 -19 56 -46l19 -19l-90 -109l-23 21
q-22 18 -39 29q-22 12 -39 17q-18 7 -42 10q-22 3 -46 3q-48 0 -87 -16q-41 -16 -71 -46q-32 -32 -48 -70t-16 -86q0 -47 16 -85t48 -70t71 -47q39 -16 87 -16q28 0 49 4q25 5 46 12q25 8 42 20q23 16 38 32l10 11l14 15l97 -104l-18 -21q-25 -29 -58 -53q-27 -19 -68 -38
q-38 -17 -74 -24q-46 -9 -78 -8z" />
    <glyph glyph-name="D" unicode="D" horiz-adv-x="787" 
d="M558 353q0 46 -14 85t-41 66q-31 31 -65 43q-39 14 -84 14h-106v-406h106h1h3h20q7 0 25 2l30 8q8 2 17 6q8 3 17 8q12 6 17 10q12 8 17 13q10 9 22 26q12 16 19 32q8 20 12 42q4 20 4 51zM92 358v358h260q30 0 53 -4q29 -3 50 -10q26 -8 47 -16t43 -22q40 -26 68 -55
q29 -30 52 -72q24 -43 34 -86q11 -49 11 -97q0 -80 -25 -143q-25 -65 -74 -113q-49 -49 -114 -73q-63 -25 -145 -25h-260v358z" />
    <glyph glyph-name="E" unicode="E" horiz-adv-x="670" 
d="M588 0h-496v358v357h490v-154h-341v-129h306v-147h-306v-131h347v-154z" />
    <glyph glyph-name="F" unicode="F" horiz-adv-x="627" 
d="M242 0h-150v358v357h514v-147h-364v-161h220v-142h-220v-265z" />
    <glyph glyph-name="G" unicode="G" horiz-adv-x="768" 
d="M424 -15q-50 0 -96 12q-46 10 -88 36q-39 23 -75 56q-32 30 -58 72q-9 14 -23 44q-10 23 -18 48q-7 23 -10 51q-4 23 -4 52q0 30 4 53q3 28 10 51q9 31 17 48q11 22 24 45q26 42 58 72q36 33 75 56q42 26 88 36q46 12 96 12q35 0 68 -6q36 -6 66 -19q34 -13 61 -30
q30 -19 55 -41q15 -15 23 -21l-113 -112l-20 18q-17 15 -31 23q-8 5 -34 17q-20 8 -37 11q-19 3 -38 3q-46 0 -82 -16q-38 -15 -70 -47q-30 -30 -47 -70q-16 -36 -16 -82t16 -82q17 -39 47 -69q29 -29 70 -47q36 -16 82 -16q14 0 40 2q13 1 37 7q18 4 33 12q17 8 27 16v72
h-171v145h322v-275l-3 -4l-4 -4q-12 -15 -24 -26q-18 -16 -27 -23l-28 -20q-16 -11 -31 -18q-24 -13 -40 -19q-25 -10 -42 -13q-32 -6 -44 -8q-30 -2 -45 -2z" />
    <glyph glyph-name="H" unicode="H" horiz-adv-x="780" 
d="M703 0h-154v284q-12 -2 -58.5 -8.5t-77.5 -10.5q-20 -3 -85 -11.5t-106 -13.5v-240h-155v358v312v45h155v-320l137 19q12 2 79.5 11t110.5 14v276h154v-715z" />
    <glyph glyph-name="I" unicode="I" horiz-adv-x="336" 
d="M88 269v447h161v-716h-161v269z" />
    <glyph glyph-name="J" unicode="J" horiz-adv-x="569" 
d="M268 -7q-45 0 -77 7q-34 7 -59 22q-24 14 -44 28l-34 25l-22 18l99 120l23 -18l23 -18l24 -15q13 -7 29 -10q15 -4 39 -4t41 7q17 6 30 19q12 14 18 32q6 20 6 45v463h154v-464q0 -55 -17 -103q-17 -45 -53 -82q-34 -36 -80 -54q-41 -16 -100 -18z" />
    <glyph glyph-name="K" unicode="K" horiz-adv-x="727" 
d="M646 -20l-400 252v-232h-154v359v356h154v-302l84 -51q136 242 215 381l134 -77l-219 -387l268 -168l-16 -24t-19 -30z" />
    <glyph glyph-name="L" unicode="L" horiz-adv-x="666" 
d="M608 0h-516v358v357h151v-566h365v-149z" />
    <glyph glyph-name="M" unicode="M" horiz-adv-x="963" 
d="M841 0h-147v469q-157 -209 -215 -286q-30 42 -90 118q-50 64 -126 167v-468h-145v359v268v89h137l224 -319q130 183 225 319h137v-716z" />
    <glyph glyph-name="N" unicode="N" horiz-adv-x="770" 
d="M678 0h-131l-304 442v-442h-151v359v357h138l299 -440v440h149v-716z" />
    <glyph glyph-name="O" unicode="O" horiz-adv-x="842" 
d="M421 573q-30 0 -54 -7q-27 -8 -50 -21t-43 -33q-26 -26 -34 -42l-13 -26q-3 -6 -10 -28q-3 -9 -7 -29q-2 -20 -2 -31t2 -31q4 -20 7 -29q6 -18 10 -27l13 -26q8 -16 34 -42q20 -20 43 -33q27 -15 50 -22q24 -7 54 -7q12 0 30 2q20 4 29 7q18 6 27 10t25 14q24 16 42 34
q19 20 32 44q14 26 21 51t7 55q0 11 -2 31q-1 11 -7 29q-7 22 -10 28q-2 4 -14 26q-13 22 -33 42t-43 33t-50 21q-24 7 -54 7zM421 -15q-49 0 -96 12q-46 10 -88 36q-39 23 -75 56q-32 30 -58 72q-9 14 -23 44q-11 23 -18 48q-8 28 -11 51q-4 23 -4 52q0 30 4 53q3 23 11 51
q7 26 18 48q14 30 23 45q26 42 58 72q36 33 75 56q42 26 88 36q47 12 96 12t96 -12q46 -12 88 -36q45 -27 75 -56q32 -30 58 -72q9 -15 23 -45q11 -22 18 -48q5 -17 11 -51q4 -23 4 -53q-1 -45 -13 -95q-13 -50 -36 -88q-23 -39 -56 -75q-30 -32 -72 -58q-15 -9 -45 -23
q-22 -11 -48 -18q-23 -7 -50 -10q-23 -4 -53 -4z" />
    <glyph glyph-name="P" unicode="P" horiz-adv-x="637" 
d="M352 401h4q14 0 31 5q14 6 26 18q13 12 17 26q6 15 6 31q0 17 -6 31q-4 14 -17 26t-26 17q-15 6 -31 6h-116v-160h53h59zM240 0q-77 1 -155 1v358v357h271q31 0 61 -8q33 -9 55 -23q27 -18 47 -36q21 -19 36 -45q9 -13 15 -29q6 -10 11 -30q7 -24 8 -32q2 -22 2 -33
q0 -29 -8 -61q-9 -33 -23 -55q-15 -25 -35 -47q-25 -25 -45 -36l-28 -15q-11 -6 -31 -11q-24 -7 -32 -8q-22 -2 -33 -2h-116v-245z" />
    <glyph glyph-name="Q" unicode="Q" horiz-adv-x="847" 
d="M427 145q46 0 82 16q37 17 68 47q31 31 46 68q16 36 16 82t-16 82q-15 38 -46 69t-68 46q-36 16 -82 16q-45 0 -82 -15t-69 -47t-47 -69q-15 -38 -15 -82t15 -81t47 -69q30 -30 69 -47q36 -14 82 -16zM634 49q76 -146 93 -178q-9 -6 -58 -31q-41 -20 -82 -43l-43 81
l-60 113l-29 -3q-5 -1 -15 -1h-14q-30 0 -53 4q-28 3 -51 10q-26 7 -48 18q-17 7 -44 23q-39 25 -71 58q-33 36 -56 75q-25 39 -37 87q-12 46 -12 96q0 30 4 53q6 34 11 51q7 26 18 48q8 18 24 44q25 39 58 71q30 29 75 56q40 24 87 36q45 13 96 13q29 0 52 -4q34 -6 51 -11
q26 -7 48 -18q25 -12 44 -23q41 -25 71 -58q29 -30 56 -75q24 -41 36 -87t12 -96q0 -46 -11 -92q-11 -45 -33 -85q-23 -41 -52 -73q-32 -35 -67 -59z" />
    <glyph glyph-name="R" unicode="R" horiz-adv-x="698" 
d="M245 561v-165h121q18 0 31 6q16 7 25 19q12 13 18 27t6 30q0 18 -6 31t-18 27q-9 12 -25 19q-13 6 -31 6h-121zM265 247h-19v-247h-153v359v357h64h91h119q47 0 89 -17q41 -17 74 -51q31 -33 49 -76q16 -39 16 -90q0 -38 -9 -69q-10 -34 -28 -61q-21 -30 -47 -51
q-24 -19 -67 -38l78 -80q7 -7 46 -47t63 -65l-44 -42l-62 -58l-109 115z" />
    <glyph glyph-name="S" unicode="S" horiz-adv-x="653" 
d="M332 -13q-20 0 -30 1q-13 1 -30 5q-20 4 -29 7q-9 2 -27 8q-24 8 -45 18q-31 15 -38 20l-29 19l-19 13l-22 19q6 7 19 24.5t19 24.5l53 69l23 -18q5 -5 18 -12l35 -21q21 -13 48 -19q24 -7 53 -7q13 0 20 1l20 4q9 1 18 6l18 9q3 2 7.5 6t5.5 4q4 4 9 12t6 14q2 10 2 14
q-2 10 -4 16q-4 9 -9 13l-12 9q-6 4 -11 6l-11 5l-16 6l-37 12l-65 23q-22 8 -33 13q-20 8 -29 13q-24 13 -46 30q-21 18 -36 38q-16 22 -25 46q-10 25 -11 50q-3 29 1 53t15 50q9 22 28 46q14 19 40 40q12 10 23 16l34 18q19 10 44 15q27 5 52 5q23 0 51 -5q32 -6 52 -14
q40 -16 52 -24l54 -33l23 -15l-36 -51q-8 -10 -24 -34t-25 -38l-24 16l-20 13l-31 16q-20 10 -37 14q-20 5 -37 5q-11 0 -16 -1l-15 -4q-7 -1 -13 -6q-5 -2 -13 -8l-14 -14q-4 -4 -10 -14q-3 -5 -5 -15t-1 -16q2 -8 4 -13q1 -2 8 -14q5 -7 12 -11q4 -4 14 -10l23 -11l27 -10
l28 -10l28 -9q5 -2 23 -7q14 -4 21 -7l19 -7l16 -7q25 -11 49 -31q19 -15 38 -41q16 -21 25 -48q10 -24 10 -53v-12q0 -25 -6 -49q-6 -25 -19 -46q-12 -23 -34 -45t-44 -35q-11 -7 -35 -17t-37 -13q-28 -6 -38 -8q-26 -2 -40 -2z" />
    <glyph glyph-name="T" unicode="T" horiz-adv-x="661" 
d="M407 0h-154v561h-223v78v57v19h601v-154h-224v-561z" />
    <glyph glyph-name="U" unicode="U" horiz-adv-x="769" 
d="M376 -15q-72 0 -125 20q-50 18 -94 62q-41 41 -60 99q-20 58 -20 130v210v157v53h157v-420q0 -22 1 -33q1 -10 5 -28q3 -14 7 -23q6 -14 9 -19q10 -16 23 -26q14 -11 29 -15q22 -6 33 -8q22 -2 35 -2q28 0 53 5q21 4 38 16q14 10 25 24q12 15 16 30q4 12 5 19l3 19
q1 7 1 20q1 7 1 21v420h157v-420q0 -72 -20 -130q-19 -58 -60 -99q-44 -44 -94 -62q-53 -20 -125 -20z" />
    <glyph glyph-name="V" unicode="V" horiz-adv-x="705" 
d="M419 0h-137q-178 441 -273 679l144 57q9 -24 82 -205l115 -288l198 493q101 -41 143 -57z" />
    <glyph glyph-name="W" unicode="W" horiz-adv-x="1053" 
d="M703 0l-176 460l-176 -460h-149l-85 287q-55 184 -117 400q22 7 53.5 17t51 16t33.5 10l64 -213l87 -298l174 478h129q69 -190 73 -200l100 -278l150 511q26 -8 74 -23t65 -20l-85 -286q-62 -208 -117 -401h-149z" />
    <glyph glyph-name="X" unicode="X" horiz-adv-x="712" 
d="M563 -16l-209 254l-210 -254l-115 94l95 116q42 52 134 162l-229 277l48 40q45 36 67 54l210 -255q93 112 209 255q21 -17 48.5 -40t42.5 -35t23 -19q-113 -139 -227 -277l227 -278z" />
    <glyph glyph-name="Y" unicode="Y" horiz-adv-x="734" 
d="M444 0h-153v270l-291 375q16 13 50 39l71 55q72 -93 154.5 -198.5t92.5 -118.5l246 317q20 -17 51 -39q11 -8 35.5 -27.5t34.5 -27.5l-291 -375v-270z" />
    <glyph glyph-name="Z" unicode="Z" horiz-adv-x="697" 
d="M636 0h-585v102v35l388 433h-372v145h567v-137q-259 -292 -387 -433h389v-145z" />
    <glyph glyph-name="bracketleft" unicode="[" horiz-adv-x="383" 
d="M50 487v287h281v-145h-130v-628h130v-145h-281v473v158z" />
    <glyph glyph-name="backslash" unicode="\" horiz-adv-x="634" 
d="M23 748l135 70l443 -866l-135 -69l-185 360q-37 71 -122.5 239t-135.5 266z" />
    <glyph glyph-name="bracketright" unicode="]" horiz-adv-x="383" 
d="M333 775v-918h-281v145h130v628h-130v145h281z" />
    <glyph glyph-name="asciicircum" unicode="^" horiz-adv-x="495" 
d="M144 757l-83 112l77 57q10 7 47.5 34.5t61.5 45.5l78 -57q10 -7 47.5 -34.5t61.5 -45.5l-83 -112l-104 76z" />
    <glyph glyph-name="underscore" unicode="_" horiz-adv-x="737" 
d="M669 -135h-600v89h450h112h38v-89z" />
    <glyph glyph-name="grave" unicode="`" horiz-adv-x="391" 
d="M209 970l131 -183h-146q-116 94 -143 115l59 25q5 2 99 43z" />
    <glyph glyph-name="a" unicode="a" horiz-adv-x="685" 
d="M490 276q0 27 -12 60q-11 28 -33 50q-24 24 -49 35q-28 11 -58 11t-57 -11q-25 -12 -48 -35q-22 -22 -33 -50q-11 -30 -11 -60t11 -60q10 -28 33 -51q24 -24 49 -35q27 -11 57 -11t58 11q25 11 49 35q22 22 33 50q12 33 11 61zM489 552h144v-553h-116l-11 34
q-1 3 -6.5 20t-8.5 27q-16 -19 -34 -34q-23 -17 -41 -26q-22 -10 -45 -18q-21 -7 -46 -7h-5h-5q-29 0 -63 8t-61 23q-29 15 -56 39q-24 23 -44 53q-7 11 -19 35q-10 26 -13 39q-6 19 -9 43q-3 22 -3 47q0 22 3 43q3 20 9 40q4 13 14 37q7 16 18 33q21 30 44 52q24 21 56 38
q29 15 62 23q32 8 62 8h10h5q4 0 5 -1q27 -2 49 -9q24 -6 43 -18q15 -8 34 -25q14 -11 28 -29v78z" />
    <glyph glyph-name="b" unicode="b" horiz-adv-x="705" 
d="M522 278q0 30 -11 60q-10 27 -34 51t-49 35q-27 12 -58 12t-58 -12q-25 -11 -49 -35q-23 -23 -33 -51q-11 -30 -11 -61t11 -61q10 -28 33 -51q24 -24 49 -35q27 -11 58 -11t58 12q25 11 49 35q23 24 34 52q11 30 11 60zM665 284q0 -48 -9 -85q-11 -40 -30 -71
q-20 -31 -44 -56q-28 -28 -54 -41l-32 -16q-19 -7 -34 -11q-20 -5 -34 -8q-22 -2 -34 -2h-5h-6q-25 0 -46 7q-16 5 -46 19q-18 9 -41 26q-18 14 -35 34l-10 -34q-1 -3 -6.5 -20t-8.5 -27h-118v388v337v49h147v-295q14 18 28 29q16 14 35 26q24 13 42 19q27 9 50 9h5q4 0 5 1
h11q12 0 34 -2q14 -3 34 -8q15 -4 34 -11q19 -8 32 -17q31 -18 53 -40q26 -26 44 -55t29 -67q10 -34 10 -78z" />
    <glyph glyph-name="c" unicode="c" horiz-adv-x="566" 
d="M465 196l38 -38t36 -35.5t23 -23.5q-4 -6 -7 -9l-10 -10l-12 -11q-8 -6 -14 -12q-12 -9 -32 -21q-11 -7 -40 -20q-23 -10 -48 -15q-28 -5 -55 -5q-38 0 -73 9q-36 9 -66 28q-29 17 -56 42q-23 22 -44 54q-9 14 -18 34q-10 21 -13 36q-6 28 -8 38q-3 19 -3 40t3 40
q2 10 8 38q3 15 13 36q7 17 18 33q21 32 44 54q26 24 56 43q31 18 66 27t73 9t72 -8q35 -10 59 -25l44 -29q22 -18 26 -22l-88 -106q-6 7 -17 14l-25 17q-11 7 -33 13q-16 4 -38 4q-30 0 -53 -10q-24 -10 -44 -30q-19 -19 -30 -45q-10 -24 -10 -54t10 -54q11 -26 30 -45
q22 -22 44 -31q23 -10 53 -10q24 0 43 6q16 5 35 17q10 7 26 20q11 9 17 17z" />
    <glyph glyph-name="d" unicode="d" horiz-adv-x="694" 
d="M493 277q-1 31 -12 60t-33 51q-24 24 -49 35q-27 12 -58 12t-58 -12q-26 -11 -50 -35q-23 -22 -33 -51q-11 -30 -11 -60q0 -31 11 -61q10 -28 33 -51q24 -24 50 -35q30 -11 59 -11q31 0 58 12q25 11 49 35q23 22 33 51q11 30 11 60zM493 774q74 -1 148 -1v-774h-118
l-10 34q-2 7 -8 23.5t-8 23.5q-17 -20 -35 -34q-20 -17 -40 -26q-28 -13 -46 -19q-21 -7 -46 -7h-6h-5q-11 0 -35 2q-14 3 -34 8q-15 4 -34 11l-32 16q-24 12 -53 41q-24 24 -44 56q-17 28 -29 71q-10 36 -10 84q0 21 3 44q3 21 9 41q4 13 14 37q12 22 19 33q21 30 44 52
q27 24 56 39q36 19 62 25q34 8 62 8h11q1 -1 5 -1h5q22 0 49 -9q20 -7 43 -19q18 -11 35 -25q14 -11 28 -29v295z" />
    <glyph glyph-name="e" unicode="e" horiz-adv-x="613" 
d="M203 325q95 -1 214 -1q-5 19 -12 35q-8 18 -20 31q-15 16 -32 23q-21 8 -44 8t-40 -7q-19 -8 -32 -21q-15 -15 -23 -31q-8 -18 -11 -37zM553 233h-349q5 -24 16 -41q9 -15 28 -30q15 -13 38 -19q21 -6 44 -6q16 0 29 4q20 6 29 11l26 16q12 8 20 17h1v1l98 -99
q-21 -23 -42 -38q-19 -14 -51 -29q-27 -13 -55 -19q-27 -7 -55 -7q-58 0 -106 18t-86 53q-38 36 -60 82q-21 44 -26 101q-1 2 -1 6v6v12q0 14 2 40q2 14 8 40q5 20 12 36q8 20 16 34q16 30 39 55q21 22 52 42q31 18 59 26q31 9 66 9h4q59 0 107 -20q45 -20 77 -60
q31 -39 48 -86q16 -45 16 -102v-5v-13l-2 -18q0 -7 -2 -17z" />
    <glyph glyph-name="f" unicode="f" horiz-adv-x="412" 
d="M383 530q-1 -55 -1 -110h-113v-420h-141v419h-70v55v56h69v1v14v31q0 22 1 35q2 24 4 37q3 21 10 35q1 2 3.5 8t4.5 9l10 17q8 10 13 15l16 11q22 12 26 14l29 9q9 3 30 5q20 2 31 2q13 0 20 -1l20 -4q7 -1 21 -5q12 -2 22 -6q-14 -126 -14 -129l-32 4q-5 1 -13 1h-11
q-11 0 -15 -1l-9 -3q-4 -1 -6 -5l-5 -4q-5 -5 -6 -10l-4 -15l-2 -20q-1 -8 -1 -28v-17h113z" />
    <glyph glyph-name="g" unicode="g" horiz-adv-x="683" 
d="M479 288q0 30 -11 58q-11 27 -31 49q-21 22 -47 33q-27 11 -56 11q-28 0 -55 -11q-26 -11 -47 -33q-20 -22 -31 -49q-10 -26 -10 -58q0 -30 11 -57t31 -49q21 -22 47 -33q27 -11 56 -11q28 0 55 11q26 11 47 33q20 22 31 49q10 24 10 57zM476 551h135v-460v-31v-22
q0 -26 -3 -49t-11 -44q-9 -23 -17 -37q-14 -22 -22 -32q-23 -26 -49 -45q-24 -17 -59 -29q-31 -10 -61 -15q-32 -5 -53 -5q-14 0 -40 2q-25 2 -36 5l-33 9l-30 10q-22 9 -46 22q-19 10 -34 22l-21 17l-7 6l78 108q1 0 2 -1l4 -4l6 -6q6 -4 9 -7q7 -5 25 -14q25 -13 34 -16
q20 -8 43 -12q20 -4 51 -4q28 0 50 7q22 6 44 20q21 15 31 36t10 55v22v42q-12 -15 -26 -28t-33 -24q-21 -11 -41 -18q-21 -7 -47 -9q-1 -1 -5 -1h-5h-10q-10 0 -32 2q-19 3 -32 7q-7 2 -32 11l-30 15q-26 13 -51 38q-17 17 -41 52q-19 27 -28 63q-9 35 -9 73q0 42 9 80
t28 67q24 35 41 52q27 27 51 39l30 15q25 9 32 11q13 4 32 7q22 2 33 2h5h5q23 0 43 -7q28 -10 42 -17q21 -11 38 -24q15 -11 33 -31v75z" />
    <glyph glyph-name="h" unicode="h" horiz-adv-x="627" 
d="M594 319v-319h-146v294q0 34 -7 55t-22 36q-12 12 -34 19q-18 7 -43 7q-34 0 -58 -12t-40 -37q-15 -21 -23 -53t-8 -65v-244h-149q-1 85 -1 319v446h150v-294q15 19 29 31q22 18 34 25q17 10 38 18q17 6 41 8q2 1 6 1h6h13q51 0 89 -16q41 -17 68 -47q30 -33 43 -74
q14 -45 14 -98z" />
    <glyph glyph-name="i" unicode="i" horiz-adv-x="299" 
d="M77 624v107v35h147v-142h-147zM77 275v276h147v-551h-147v206v69z" />
    <glyph glyph-name="j" unicode="j" horiz-adv-x="339" 
d="M102 623v147h153v-147h-153zM84 -218l-20 2l-20 3q-12 2 -19 4q-8 1 -19 6l-24 9l11 56q8 37 15 80l13 -3q2 0 7.5 -1.5t9.5 -2.5l17 -3q3 -1 7 -1h6q6 0 9 1l8 2q3 1 6 4l4 4q3 3 5 11t2 14v48v537h153v-537q0 -12 -2 -46q-2 -27 -6 -55q-5 -30 -19 -54q-15 -28 -40 -45
l-22 -15q-10 -5 -25 -10q-14 -5 -28 -6q-18 -2 -29 -2z" />
    <glyph glyph-name="k" unicode="k" horiz-adv-x="609" 
d="M607 103l-73 -116l-318 201v-188h-144v473v158v127h144v-410l45 -28q5 -3 16 -10t16 -10l146 256l117 -67q-17 -30 -45.5 -81t-40.5 -72q-11 -20 -31.5 -56.5t-29.5 -52.5z" />
    <glyph glyph-name="l" unicode="l" horiz-adv-x="295" 
d="M223 765v-765h-151v447v278v40h151z" />
    <glyph glyph-name="m" unicode="m" horiz-adv-x="1046" 
d="M973 323v-2v-320h-146v293q0 34 -7 55q-7 22 -23 36q-12 12 -34 19q-18 7 -42 7q-33 0 -57 -12q-23 -12 -40 -36q-16 -25 -24 -54q-8 -32 -8 -65v-22v-221h-146v293q0 34 -7 55t-22 36q-13 13 -33 19q-18 7 -43 7q-34 0 -58 -12q-23 -12 -40 -36q-15 -23 -23 -54
q-8 -32 -8 -65v-244h-149q-1 61 -1 230v321h150v-80q18 22 28 31q22 18 34 25q15 10 37 18q22 7 42 8q3 1 7 1h6h13q29 0 55 -6q23 -5 48 -17q21 -10 40 -27q17 -15 31 -36q17 21 37 36q19 16 46 27q27 13 57 17q31 6 67 6q50 0 88 -16q40 -16 68 -47t43 -73q14 -44 14 -95z
" />
    <glyph glyph-name="n" unicode="n" horiz-adv-x="654" 
d="M591 321v-320h-146v293q0 34 -7 55t-22 36q-12 12 -34 19q-18 7 -43 7q-33 0 -57 -12q-23 -12 -40 -36q-15 -23 -23 -54q-8 -32 -8 -65v-244h-150v230q0 198 -1 321h151v-80q18 22 28 31q22 18 34 25q15 10 37 18q16 6 42 8q2 1 6 1h7h13q50 0 88 -16q40 -16 68 -47
q30 -33 43 -73q14 -45 14 -97z" />
    <glyph glyph-name="o" unicode="o" horiz-adv-x="665" 
d="M343 413q-30 0 -53 -10q-25 -11 -44 -30t-30 -44q-10 -24 -10 -53t10 -53q11 -25 30 -44t44 -30q23 -10 53 -10q29 0 53 10q25 11 44 30t30 44q10 24 10 53t-10 53q-11 25 -30 44t-44 30q-24 10 -53 10zM343 -5q-21 0 -40 3q-10 2 -38 8q-15 3 -36 13q-17 7 -34 18
q-31 20 -53 43q-23 24 -43 57q-18 31 -27 66t-9 73q0 20 3 40q2 10 8 38q3 15 13 36q9 20 18 34q20 31 43 53q24 23 57 43q31 18 66 27t72 9q21 0 40 -3q10 -2 38 -8q15 -3 36 -13q20 -9 34 -18q31 -20 53 -43q23 -24 43 -57q19 -30 28 -66q9 -34 9 -72t-9 -73
q-9 -36 -28 -66q-20 -33 -43 -57q-22 -23 -53 -43q-14 -9 -34 -18q-21 -10 -36 -13q-28 -6 -38 -8q-19 -3 -40 -3z" />
    <glyph glyph-name="p" unicode="p" horiz-adv-x="703" 
d="M521 274q0 30 -11 60q-13 31 -34 52q-24 24 -49 35q-27 11 -58 11q-30 0 -58 -11q-25 -11 -49 -35q-22 -22 -33 -52t-11 -60t11 -60q11 -28 33 -51q24 -24 49 -35q27 -12 58 -12q33 0 58 12q25 11 49 35q22 22 34 51q11 30 11 60zM664 267q0 -30 -2 -44q-3 -20 -9 -40
q-5 -16 -14 -36q-10 -19 -19 -34q-21 -30 -44 -52q-24 -21 -56 -38t-62 -24q-34 -8 -63 -8h-11h-5q-4 0 -5 1q-28 3 -50 9q-22 7 -42 18q-18 11 -35 25q-14 11 -28 29v-290h-147v385v336v48h147v-78q19 21 34 32q20 17 40 26q18 8 44 17q21 7 45 7h6h5q12 0 34 -2
q25 -5 34 -7q19 -5 34 -12l32 -16q22 -11 54 -41q25 -24 44 -56q17 -28 29 -71q8 -35 10 -84z" />
    <glyph glyph-name="q" unicode="q" horiz-adv-x="682" 
d="M330 116q32 0 59 12q26 11 50 35q23 23 33 51q11 30 11 60t-11 60t-33 52q-24 24 -50 35q-30 11 -59 11q-31 0 -58 -11q-25 -11 -49 -35q-22 -22 -33 -52t-11 -60t11 -60q10 -28 33 -51q24 -24 49 -35q26 -12 58 -12zM308 556h5h5q25 0 46 -7q26 -9 44 -17q24 -11 40 -26
q16 -11 35 -32v78h146v-769h-146v290q-18 -20 -29 -29q-19 -17 -34 -25q-20 -12 -43 -20q-24 -8 -50 -8h-9q-2 -1 -6 -1h-5q-12 0 -34 2q-15 2 -35 8q-11 3 -33 11l-32 16q-20 10 -53 41q-25 24 -44 54q-21 33 -29 67q-10 36 -10 78q0 25 3 47q3 24 9 43q4 13 14 39
q12 24 19 35q19 30 44 54q27 24 56 39q32 17 62 24q34 8 64 8z" />
    <glyph glyph-name="r" unicode="r" horiz-adv-x="430" 
d="M377 405q-6 2 -9 2l-10 2q-3 1 -10 1q-3 1 -10 1q-33 0 -57 -12t-40 -37q-15 -21 -23 -53t-8 -65v-244h-149v230q0 198 -1 321h150v-80q18 22 29 31q22 18 34 25q15 10 37 18q16 6 42 8q2 1 6 1h7h13h8h4q3 0 4 -1l-7 -62q-8 -64 -10 -86z" />
    <glyph glyph-name="s" unicode="s" horiz-adv-x="532" 
d="M472 172q-2 -6 -2 -8q0 -17 -5 -39q-4 -19 -15 -37q-9 -17 -27 -35q-15 -16 -35 -27q-18 -10 -27 -13q-12 -5 -31 -10q-17 -5 -32 -6q-22 -2 -33 -2q-38 0 -67 7q-36 9 -61 23l-47 27q-17 10 -26 19l-2 2l85 108l4 -3q18 -13 33 -20q19 -11 32 -14l29 -8q13 -3 27 -3
q9 0 13 1l12 2q8 2 11 4q6 1 11 5q3 2 5 5q3 2 5 5l3 5l2 7q1 5 -1 11q-4 6 -7 7q-7 5 -8 5l-9 4l-29 10l-56 17l-35 13l-14 4l-10 5q-23 12 -36 23q-15 13 -28 28q-11 12 -19 32q-9 21 -10 39q-2 24 1 41q3 20 12 40q7 19 22 37q14 17 31 31q2 2 16 10q12 9 26 15
q21 10 38 13q20 4 48 4q24 0 43 -4q18 -2 43 -11q23 -8 43 -19q21 -10 42 -27l-81 -113q-11 9 -20 13l-26 12q-20 7 -26 8q-14 3 -26 3q-7 0 -10 -1l-9 -2l-8 -3q-1 0 -3 -1.5t-4 -2.5l-8 -8l-4 -8q-2 -6 -2 -8q-1 -4 0 -7l2 -6l3 -6l6 -5q1 0 3 -1.5t4 -2.5q3 -2 13 -6
t16 -5l17 -5l17 -6q7 -2 9 -3q8 -1 9 -3q9 -2 10 -3l11 -3l12 -4l11 -4q13 -5 22 -7q25 -7 44 -23q18 -15 29 -32q10 -15 18 -37q6 -19 6 -43z" />
    <glyph glyph-name="t" unicode="t" horiz-adv-x="451" 
d="M380 147q6 -63 13 -139l-42 -10l-20 -3h-20q-11 0 -31 2q-16 2 -29 6q-18 6 -27 10q-4 2 -26 14q-14 9 -30 25q-10 13 -19 32q-7 15 -12 34q-6 24 -7 35q-1 7 -1 19q-1 6 -1 18q-1 5 -1 16v16v9v206h-75v57v57h75v221h148v-221h139v-114h-139v-215v-49q2 -10 4 -14
q2 -5 8 -11q3 -4 14 -5q14 -2 25 -1l28 2z" />
    <glyph glyph-name="u" unicode="u" horiz-adv-x="655" 
d="M596 1q-53 1 -119 1l-10 37q-2 6 -7 23.5t-8 28.5q-11 -16 -30 -35q-17 -16 -35 -28q-17 -12 -40 -20q-21 -7 -44 -9q-3 -1 -7 -1h-6h-13q-46 0 -88 16q-42 17 -68 46q-30 33 -43 74q-14 45 -14 97v160v120v40h146v-294q0 -34 7 -55t22 -36q12 -12 34 -19q18 -7 43 -7
q34 0 58 12q23 12 40 36q15 22 23 54t8 65v244h149q1 -61 1 -230q0 -198 1 -321v1z" />
    <glyph glyph-name="v" unicode="v" horiz-adv-x="560" 
d="M341 0h-123l-215 516l130 50q20 -45 61 -145q43 -106 85 -205l146 350l55 -20q9 -4 34.5 -14t41.5 -16z" />
    <glyph glyph-name="w" unicode="w" horiz-adv-x="835" 
d="M417 302l-46 -126q-51 -136 -65 -176h-131l-162 527l123 39q13 -44 47 -153l67 -211l118 335h99l49 -141l68 -194q21 61 48 151q33 109 66 211l51 -15l72 -22q-25 -89 -66 -219q-47 -154 -92 -308h-135l-46 126q-6 16 -28.5 77t-36.5 99z" />
    <glyph glyph-name="x" unicode="x" horiz-adv-x="580" 
d="M444 -14l-153 186l-153 -186l-45 36l-62 52l70 86l99 120l-71 85l-98 121q6 4 45 37l62 51q84 -102 153 -187q84 102 153 187q86 -72 107 -88l-70 -86l-99 -120l70 -86l99 -120q-6 -5 -45 -37z" />
    <glyph glyph-name="y" unicode="y" horiz-adv-x="604" 
d="M131 -180l90 216l-196 474q25 8 56 21l78 30q121 -291 141 -341q41 99 143 341l133 -51l-58 -140l-81 -197l-71 -169q-97 -233 -99 -237q-5 2 -57 22q-8 3 -23 9t-29 11.5t-27 10.5z" />
    <glyph glyph-name="z" unicode="z" horiz-adv-x="566" 
d="M516 0h-457v91v30q60 67 115.5 128.5t100 111t55.5 61.5h-259v130h443v-122l-108 -125l-152 -175h262v-130z" />
    <glyph glyph-name="braceleft" unicode="{" horiz-adv-x="369" 
d="M242 -135l-97 72q-9 7 -22 21q-13 13 -23 30q-11 18 -17 39q-6 23 -6 48q0 8 2 30q1 15 6 32q5 19 12 34q13 28 17 36q1 2 2.5 4t1.5 3l2 7q1 3 1 7t-1 5v1q0 1 -1 2l-3 2h-1h-1h-2h-72v75v73h73h2h1l3 3q1 1 1 2v1q1 1 1 5t-1 7l-2 6l-2 2q-1 3 -2 5q-20 36 -29 65
q-9 33 -8 58q2 28 6 50q5 24 14 41q1 4 11 19q3 5 11 15q9 9 13 12l12 10q31 26 98 73l83 -112l-99 -73l-3 -6l-6 -15q-4 -9 1 -27t18 -40q10 -17 15 -33q7 -18 8 -34q2 -22 1 -34q-2 -22 -5 -33l-8 -21l-5 -10q-4 -6 -7 -9l6 -10l5 -10l9 -21q3 -11 5 -33q1 -11 -1 -34
q-1 -16 -8 -34q-5 -17 -15 -33q-4 -6 -11 -22q-5 -10 -6 -21q-2 -14 -2 -18q0 -5 2 -15q2 -7 3 -8l4 -4l99 -73l-34 -47z" />
    <glyph glyph-name="bar" unicode="|" horiz-adv-x="283" 
d="M205 -150h-127v414v138v394h127v-946z" />
    <glyph glyph-name="braceright" unicode="}" horiz-adv-x="369" 
d="M225 -62l-97 -73l-83 111q84 63 99 74l4 4q2 6 3 7q3 7 3 15l-3 18q-1 10 -6 21q-7 17 -11 23q-10 16 -15 33q-7 18 -8 34q-2 26 -1 34q0 14 5 32q3 9 4 11q1 6 5 11l5 10l6 9q-1 1 -7 10l-5 10l-4 11q-1 2 -4 11q-5 18 -5 33q-1 8 1 34q1 16 8 34q5 13 15 32
q13 24 18 41t1 26l-6 15l-3 6l-99 74l83 112q21 -16 54.5 -40.5t43.5 -32.5l12 -10q4 -3 13 -12l11 -16q7 -9 11 -18q10 -16 15 -41q3 -15 5 -50q1 -25 -8 -58q-11 -33 -29 -65q-1 -2 -2.5 -4t-1.5 -3l-2 -7q-1 -2 -1 -6t1 -5v-2q0 -1 1 -2l3 -2h1h2h73v-148h-72h-2h-1h-1
l-3 -3q-1 -1 -1 -2v-1q-1 -1 -1 -5q0 -3 1 -6l2 -7l2 -3l2 -4q18 -33 28 -66q10 -31 9 -58q-2 -35 -5 -50q-4 -22 -15 -40q-3 -7 -11 -19q-4 -7 -12 -15q-9 -9 -13 -12q-4 -4 -12 -10z" />
    <glyph glyph-name="asciitilde" unicode="~" horiz-adv-x="548" 
d="M366 424q17 0 25 11t8 33q0 7 -1 11q0 3 -2 11l51 -13q12 -3 37.5 -10t34.5 -9q-3 -45 -14 -74q-10 -29 -31 -50q-18 -18 -44 -28q-23 -10 -53 -10q-16 0 -43 8q-28 10 -57 25q-36 19 -53 25q-22 8 -31 8q-10 0 -18 -5q-9 -5 -15 -14q-7 -10 -10 -23q-5 -14 -3 -32
l-121 37q5 42 16 72q12 31 32 51t46 31q26 10 59 10q17 0 44 -8q25 -7 57 -24q33 -17 53 -24q23 -9 33 -9z" />
    <glyph glyph-name="circumflex" unicode="&#x2c6;" horiz-adv-x="495" 
d="M247 872l-84 -82h-126l116 161h191l116 -161h-126l-33 31q-6 6 -24.5 23t-29.5 28z" />
    <glyph glyph-name="tilde" unicode="&#x2dc;" horiz-adv-x="599" 
d="M249 679q-16 0 -23 -13q-8 -15 -7 -40h-108q0 36 8 68q7 27 25 52q17 23 38 34q22 11 47 11q17 0 37 -7q18 -7 43 -22q20 -12 38 -21q13 -7 19 -7q16 0 23 13q8 15 7 40h109q0 -36 -8 -68q-9 -30 -25 -52q-16 -23 -39 -33q-24 -11 -48 -11q-18 0 -36 7q-21 8 -44 21
l-38 21q-13 7 -18 7z" />
    <glyph glyph-name="endash" unicode="&#x2013;" horiz-adv-x="556" 
d="M465 193h-389v90v91h389v-181z" />
    <glyph glyph-name="emdash" unicode="&#x2014;" horiz-adv-x="714" 
d="M648 221h-582v134v45h582v-179z" />
    <glyph glyph-name="quoteright" unicode="&#x2019;" horiz-adv-x="246" 
d="M238 670l-111 -197l-48 27q-6 3 -29.5 16t-37.5 22l111 197l48 -27q6 -3 29.5 -16t37.5 -22z" />
    <glyph glyph-name="quotedblleft" unicode="&#x201c;" horiz-adv-x="435" 
d="M444 670q-94 -169 -110 -197l-116 65l111 197l48 -27q6 -3 29.5 -16t37.5 -22zM223 670l-112 -197l-48 27q-6 3 -29.5 16t-37.5 22q94 169 110 197z" />
    <glyph glyph-name="quotedblright" unicode="&#x201d;" horiz-adv-x="435" 
d="M108 473q-67 120 -111 197l116 65l110 -197l-48 -27q-6 -3 -29.5 -16t-37.5 -22zM331 473l-112 197l116 65q67 -120 111 -197q-33 -19 -71.5 -40.5t-43.5 -24.5z" />
    <glyph glyph-name="dagger" unicode="&#x2020;" horiz-adv-x="551" 
d="M346 -189h-148v571h-162v133h162v201h148v-201h169v-133h-169v-571z" />
    <glyph glyph-name="daggerdbl" unicode="&#x2021;" horiz-adv-x="547" 
d="M509 382h-162v-196h102v-113h-102v-262h-149v262h-105v113h105v196h-159v99v34h159v201h149v-201h162v-133z" />
    <glyph glyph-name="bullet" unicode="&#x2022;" horiz-adv-x="449" 
d="M82 325q2 33 11 56q10 24 31 45q20 20 46 31q24 10 55 10q28 0 55 -11q26 -10 46 -31t31 -46q10 -24 10 -54q0 -28 -11 -55q-10 -26 -31 -46t-46 -31q-27 -11 -55 -11t-55 11q-25 11 -46 31t-31 46q-10 24 -10 55z" />
    <glyph glyph-name="guilsinglleft" unicode="&#x2039;" horiz-adv-x="388" 
d="M174 439h155q-7 -10 -46 -70l-75 -118l121 -190h-155q-33 50 -74 112.5t-51 77.5z" />
    <glyph glyph-name="guilsinglright" unicode="&#x203a;" horiz-adv-x="388" 
d="M180 251l-121 188h155l125 -188q-4 -5 -47 -71l-78 -119h-155q3 5 46 71z" />
    <glyph glyph-name=".notdef_2" horiz-adv-x="543" 
d="M0 51v641h410v-641h-410zM51 505v-403h307v539h-307v-136z" />
    </font>
</defs>
</svg>
