<?xml version="1.0" standalone="no"?>
<!DOCTYPE svg PUBLIC "-//W3C//DTD SVG 1.1//EN" "http://www.w3.org/Graphics/SVG/1.1/DTD/svg11.dtd" >
<svg xmlns="http://www.w3.org/2000/svg" xmlns:xlink="http://www.w3.org/1999/xlink" version="1.1">
<metadata></metadata>
<defs>
<font id="visionitalic" horiz-adv-x="1138" >
<font-face units-per-em="2048" ascent="1638" descent="-410" />
<missing-glyph horiz-adv-x="518" />
<glyph unicode="&#xfb01;" horiz-adv-x="954" d="M100 -369l179 1274h-150l21 148h149q15 104 65.5 193t137.5 146.5t192 57.5q114 0 178 -53l-69 -115q-57 31 -103 31q-101 0 -162.5 -76.5t-76.5 -183.5h477l-150 -1053h-161l127 905h-316l-176 -1274h-162z" />
<glyph unicode="&#xfb02;" horiz-adv-x="1136" d="M102 -371l179 1278h-148l21 146h147q11 76 42.5 147t79.5 129t117 92.5t148 34.5q67 0 131 -26v4h168l-143 -1031q-8 -47 -8 -102q0 -170 114 -170q64 0 117 35l41 -131q-91 -58 -209 -58q-65 0 -112 23.5t-72.5 66t-37 93.5t-11.5 114q0 70 8 127l71 506h-305 l-178 -1278h-160zM465 1053h301l33 235q-37 23 -88 23q-104 0 -167.5 -75t-78.5 -183z" />
<glyph unicode="&#xfb04;" horiz-adv-x="1830" d="M35 -371l178 1278h-147l20 146h147q11 76 42.5 147t79.5 129t117.5 92.5t148.5 34.5q48 0 102.5 -15.5t87.5 -43.5l-70 -115q-42 29 -98 29q-102 0 -166.5 -75.5t-79.5 -182.5h301h13h137q14 103 62.5 193t134 150t190.5 60q67 0 129 -25v3h168l-143 -1031 q-9 -79 -9 -102q0 -170 117 -170q65 0 115 35l41 -131q-91 -58 -207 -58q-53 0 -94.5 16t-67.5 43t-43 65.5t-24 80.5t-7 92q0 48 11 127l70 506h-304l-178 -1278h-162l180 1278h-137h-12h-303l-180 -1278h-160zM1012 1053h299l33 235q-39 23 -89 23q-102 0 -165 -75 t-78 -183z" />
<glyph horiz-adv-x="0" />
<glyph horiz-adv-x="682" />
<glyph horiz-adv-x="0" />
<glyph horiz-adv-x="0" />
<glyph unicode="&#xd;" horiz-adv-x="512" />
<glyph unicode=" "  horiz-adv-x="518" />
<glyph unicode="&#x09;" horiz-adv-x="518" />
<glyph unicode="&#xa0;" horiz-adv-x="518" />
<glyph unicode="!" horiz-adv-x="475" d="M100 74q0 50 39.5 87.5t89.5 37.5q42 0 71.5 -27t29.5 -68q0 -52 -39.5 -88t-91.5 -36q-41 0 -70 27t-29 67zM180 348l113 1139h242l-213 -1139h-142z" />
<glyph unicode="&#x22;" horiz-adv-x="536" d="M84 877l29 432h155l-94 -432h-90zM385 877l29 432h155l-94 -432h-90z" />
<glyph unicode="#" horiz-adv-x="1400" d="M82 326l55 143h205l96 309h-213l54 146h202l101 327h178l-103 -327h320l100 327h178l-100 -327h221l-53 -146h-213l-94 -309h219l-57 -143h-205l-101 -326h-178l101 326h-320l-98 -326h-178l100 326h-217zM510 461h334l100 325h-334z" />
<glyph unicode="$" horiz-adv-x="1056" d="M76 106l100 154q50 -42 144.5 -78.5t156.5 -36.5q70 0 135 26t110.5 81t45.5 127q0 48 -29 85.5t-75.5 63t-102.5 48.5t-112 49.5t-102.5 58.5t-75.5 82.5t-29 114.5q0 152 105 255.5t261 127.5l23 166h119l-23 -158q85 -4 172 -30t135 -77l-78 -133q-39 38 -109.5 61 t-131.5 23q-48 0 -97.5 -12.5t-94 -36.5t-73 -65t-28.5 -93q0 -42 29.5 -75t76.5 -55.5t103.5 -44t113 -47.5t103.5 -59t76.5 -85.5t29.5 -120.5q0 -170 -118 -291t-289 -145l-23 -150h-116l20 146q-92 5 -190 37.5t-162 86.5z" />
<glyph unicode="%" horiz-adv-x="1339" d="M100 877q0 92 36 181.5t110.5 153.5t169.5 64q108 0 163.5 -79.5t55.5 -192.5q0 -68 -21 -137.5t-59 -128t-99 -95.5t-134 -37q-110 0 -166 78.5t-56 192.5zM227 895q0 -39 9.5 -73.5t36.5 -61.5t67 -27q53 0 93.5 44.5t58.5 100.5t18 107q0 64 -27.5 114t-85.5 50 q-53 0 -93.5 -45t-58.5 -101.5t-18 -107.5zM295 0l678 1253h157l-677 -1253h-158zM791 254q0 67 22 136.5t61 128.5t100.5 96.5t133.5 37.5q108 0 163.5 -79.5t55.5 -192.5q0 -68 -21 -137.5t-59.5 -127.5t-99.5 -95t-133 -37q-110 0 -166.5 78t-56.5 192zM920 272 q0 -63 26.5 -112t83.5 -49q54 0 95 44t59 100t18 107q0 64 -27 114t-85 50q-54 0 -94.5 -45t-58 -101.5t-17.5 -107.5z" />
<glyph unicode="&#x26;" horiz-adv-x="1241" d="M100 326q0 150 107.5 276t257.5 186q-41 109 -41 173q0 73 36 134t93 99t125.5 59t136.5 21q60 0 127 -18t105 -52l-76 -114q-62 45 -164 45q-77 0 -141 -49.5t-64 -124.5q0 -144 301 -578q115 155 139 342h150q-36 -260 -199 -465q101 -135 203 -260h-219 q-23 28 -65.5 82t-49.5 63q-177 -157 -385 -157q-101 0 -186 39.5t-138 118t-53 180.5zM258 354q0 -97 70 -159t168 -62q144 0 280 129q-166 228 -256 404q-106 -39 -184 -123.5t-78 -188.5z" />
<glyph unicode="'" horiz-adv-x="335" d="M172 877l25 432h182l-100 -432h-107z" />
<glyph unicode="(" horiz-adv-x="684" d="M66 393q0 351 181 664t482 512q14 -24 41.5 -71t40.5 -71q-258 -170 -412.5 -440.5t-154.5 -572.5q0 -209 83 -393t242 -314q-103 -118 -123 -139q-186 150 -283 364.5t-97 460.5z" />
<glyph unicode=")" horiz-adv-x="620" d="M-131 -283q258 170 413.5 441.5t155.5 572.5q0 211 -83.5 395t-243.5 312l122 141q186 -152 283.5 -366t97.5 -459q0 -351 -180 -665t-481 -513z" />
<glyph unicode="*" horiz-adv-x="804" d="M100 741l230 142l-189 145l82 98l185 -141l36 264h121l-37 -264l222 141l55 -98l-230 -145l191 -142l-82 -98l-184 137l-39 -266h-121l37 266l-223 -137z" />
<glyph unicode="+" horiz-adv-x="866" d="M70 514l20 156h307l43 315h174l-45 -315h305l-20 -156h-305l-45 -313h-174l45 313h-305z" />
<glyph unicode="," horiz-adv-x="421" d="M119 98q0 55 49.5 97.5t105.5 42.5t82.5 -42t26.5 -102q0 -93 -68 -194.5t-155 -122.5l-35 90q41 12 73.5 47t41.5 78q-55 -7 -88 21.5t-33 84.5z" />
<glyph unicode="-" horiz-adv-x="989" d="M100 518l21 154h784l-20 -154h-785z" />
<glyph unicode="." horiz-adv-x="430" d="M104 88q0 58 43.5 101.5t102.5 43.5q46 0 77 -31t31 -77q0 -59 -43 -102t-102 -43q-46 0 -77.5 31t-31.5 77z" />
<glyph unicode="/" horiz-adv-x="833" d="M14 -51l672 1382h158l-672 -1382h-158z" />
<glyph unicode="0" horiz-adv-x="1161" d="M100 494q0 103 25 211t77 210t123 182t170.5 128.5t211.5 48.5q83 0 153.5 -29t119 -79t82.5 -116.5t50 -140.5t16 -153q0 -104 -24.5 -212t-76 -209t-121.5 -180t-169.5 -127t-212.5 -48q-105 0 -188 43t-133.5 116t-76.5 163.5t-26 191.5zM270 506q0 -70 14 -133 t44.5 -118.5t86 -88.5t130.5 -33q84 0 155 40.5t117.5 104.5t79 145.5t47 162t14.5 155.5q0 71 -14 134t-44 119.5t-85.5 90t-130.5 33.5q-70 0 -131.5 -28.5t-105.5 -77t-79 -110.5t-56 -131t-31.5 -136t-10.5 -129z" />
<glyph unicode="1" horiz-adv-x="538" d="M84 1124l301 129h150l-177 -1253h-174l152 1075l-230 -94z" />
<glyph unicode="2" horiz-adv-x="1028" d="M84 0q7 57 14 96q12 82 58.5 160t111 140t139 121.5t147 113t131.5 104t95.5 105.5t36.5 108q0 59 -36 98.5t-84.5 54.5t-106.5 15q-138 0 -297 -104l-43 127q80 62 183.5 97.5t203.5 35.5q70 0 132 -14.5t115 -45.5t84 -86t31 -129q0 -73 -33 -142.5t-87 -127 t-120 -112.5t-135.5 -109t-129.5 -106.5t-105.5 -114.5t-60.5 -125h585l-22 -160h-807z" />
<glyph unicode="3" horiz-adv-x="1024" d="M84 117l82 129q55 -47 132 -77t146 -30q85 0 158 31t120.5 96t47.5 152q0 39 -14.5 70t-35 51t-56.5 34t-63.5 20.5t-73 10t-69 4t-65.5 0.5h-14l18 135l379 363h-495l20 147h698l-22 -149l-348 -346q139 0 229 -85t90 -224q0 -102 -41.5 -190.5t-111 -149t-161.5 -95 t-192 -34.5q-92 0 -192 37.5t-166 99.5z" />
<glyph unicode="4" horiz-adv-x="1081" d="M84 319l18 130l656 804h209l-111 -786h197l-23 -148h-196l-43 -319h-177l45 319h-575zM289 467h393l82 584z" />
<glyph unicode="5" horiz-adv-x="985" d="M88 102l88 142q58 -43 135 -72t142 -29q124 0 217.5 88t93.5 211q0 47 -16.5 84t-40.5 60t-64 39t-75 23t-86.5 10.5t-84.5 3t-83.5 -1.5t-69.5 -1l100 594h619l-21 -147h-477l-51 -297q63 1 109 -0.5t104.5 -8t100.5 -20t85.5 -38t70 -59.5t43.5 -87.5t17 -118.5 q0 -135 -68 -250t-183.5 -181t-250.5 -66q-89 0 -187.5 33.5t-166.5 88.5z" />
<glyph unicode="6" horiz-adv-x="958" d="M100 317q0 49 12 99.5t27 89.5t45 90t50 80t57 82l354 495h176l-346 -501q48 22 113 22q153 0 248.5 -88.5t95.5 -239.5q0 -197 -137 -331.5t-334 -134.5q-157 0 -259 90.5t-102 246.5zM262 340q0 -97 60.5 -158t158.5 -61q120 0 205.5 89t85.5 210q0 99 -60 162t-159 63 q-120 0 -205.5 -91t-85.5 -214z" />
<glyph unicode="7" horiz-adv-x="882" d="M47 0l637 1102h-539l21 151h719l-21 -145l-635 -1108h-182z" />
<glyph unicode="8" horiz-adv-x="968" d="M100 305q0 128 72 237t190 163q-104 73 -104 210q0 152 113.5 257.5t265.5 105.5q125 0 209 -73.5t84 -196.5q0 -92 -47.5 -174.5t-126.5 -128.5q79 -42 121.5 -117.5t42.5 -167.5q0 -123 -65 -225t-171.5 -158.5t-228.5 -56.5q-152 0 -253.5 88t-101.5 237zM268 336 q0 -92 58.5 -149.5t150.5 -57.5q110 0 193.5 80.5t83.5 189.5q0 89 -60.5 152t-148.5 63q-104 0 -190.5 -87t-86.5 -191zM408 924q0 -69 44.5 -113.5t114.5 -44.5q85 0 149 62.5t64 148.5q0 71 -45.5 115.5t-116.5 44.5q-84 0 -147 -64t-63 -149z" />
<glyph unicode="9" horiz-adv-x="972" d="M100 811q0 128 63.5 234.5t172 167.5t235.5 61q158 0 259.5 -90.5t101.5 -245.5q0 -61 -15 -119.5t-46 -117.5t-57.5 -100t-70.5 -103l-354 -498h-184l346 502q-55 -25 -115 -25q-147 0 -241.5 93.5t-94.5 240.5zM260 834q0 -99 60 -162.5t157 -63.5q122 0 207.5 91 t85.5 214q0 97 -60.5 158.5t-158.5 61.5q-120 0 -205.5 -89t-85.5 -210z" />
<glyph unicode=":" horiz-adv-x="516" d="M129 88q0 58 44 101.5t101 43.5q47 0 79 -31t32 -77q0 -58 -44 -101.5t-101 -43.5q-46 0 -78.5 31.5t-32.5 76.5zM227 793q0 58 44.5 101.5t103.5 43.5q46 0 77 -31.5t31 -77.5q0 -59 -43.5 -102t-101.5 -43q-46 0 -78.5 31t-32.5 78z" />
<glyph unicode=";" horiz-adv-x="505" d="M117 66q0 54 42 99.5t95 45.5q31 0 47 -16q41 -13 61.5 -50.5t20.5 -83.5q0 -89 -68.5 -189.5t-152.5 -121.5q-11 23 -37 90q42 12 74 47t43 78q-53 -9 -89 19.5t-36 81.5zM217 793q0 58 44 101.5t101 43.5q47 0 79 -31.5t32 -77.5q0 -58 -44 -101.5t-101 -43.5 q-47 0 -79 31t-32 78z" />
<glyph unicode="&#x3c;" horiz-adv-x="878" d="M84 641l18 127l752 324l-25 -168l-534 -219l473 -220l-25 -168z" />
<glyph unicode="=" horiz-adv-x="937" d="M84 379l22 153h785l-23 -153h-784zM141 797l21 155h784l-20 -155h-785z" />
<glyph unicode="&#x3e;" horiz-adv-x="888" d="M84 307l25 170l536 230l-473 229l25 170l663 -336l-18 -127z" />
<glyph unicode="?" horiz-adv-x="808" d="M84 74q0 50 39.5 87.5t91.5 37.5q40 0 69 -27t29 -68q0 -51 -39 -87.5t-90 -36.5q-42 0 -71 26.5t-29 67.5zM160 1358q55 42 153.5 68t175.5 26q144 0 239 -76.5t95 -216.5q0 -92 -37 -177t-99.5 -146.5t-147.5 -98.5t-177 -37l-47 -335h-151l65 460q82 0 123 2 q123 9 206 89t83 202q0 87 -62.5 134.5t-152.5 47.5q-52 0 -119 -23t-114 -54z" />
<glyph unicode="@" horiz-adv-x="1634" d="M100 453q0 168 69 324t183.5 269.5t271 181.5t324.5 68q131 0 247.5 -38t206.5 -108t142.5 -180.5t52.5 -246.5q0 -86 -26 -185t-73 -191.5t-126.5 -154t-173.5 -61.5q-57 0 -107.5 32t-70.5 85q-50 -58 -128 -86.5t-163 -28.5q-141 0 -227 101t-86 243q0 122 52.5 227.5 t151 170.5t220.5 65q64 0 132.5 -25.5t106.5 -70.5l11 76h149q-3 -19 -26.5 -165t-34.5 -240.5t-11 -168.5q0 -26 2.5 -45t10.5 -39t26 -30.5t45 -10.5q61 0 114 57t84.5 138.5t49 161t17.5 133.5q0 95 -31.5 176.5t-86 141t-128 101.5t-158.5 63t-176 21q-118 0 -231.5 -39 t-207 -109t-165 -162t-111 -205.5t-39.5 -231.5q0 -243 163 -402t407 -159q66 0 154 23.5t161 56.5l27 -80q-75 -37 -172.5 -59.5t-180.5 -22.5q-183 0 -329 79t-229 223t-83 327zM561 500q0 -98 61 -166t158 -68q72 0 147 40t89 104q8 33 10 47t14.5 95.5t12.5 123.5 q0 60 -66.5 96.5t-132.5 36.5q-127 -1 -210 -90.5t-83 -218.5z" />
<glyph unicode="A" horiz-adv-x="1126" d="M16 0l586 1253h232l231 -1253h-178l-66 334h-465l-159 -334h-181zM422 489h379l-111 576z" />
<glyph unicode="B" horiz-adv-x="1075" d="M88 0l176 1253h441q126 0 210 -71.5t84 -196.5q0 -82 -40 -158.5t-107 -130.5q82 -31 128 -106t46 -166q0 -164 -117.5 -288.5t-281.5 -133.5q-31 -2 -90 -2h-449zM283 141h327q92 0 164 84t72 178q0 77 -48.5 136t-123.5 59h-328zM367 745h219h45q83 3 143 70t60 150 q0 69 -46 109t-116 40h-252z" />
<glyph unicode="C" horiz-adv-x="1189" d="M98 524q0 144 56 281t151 240t228.5 166t279.5 63q94 0 194 -34.5t158 -96.5l-94 -148q-49 50 -124.5 80.5t-145.5 30.5q-144 0 -265 -79.5t-188 -206.5t-67 -269q0 -177 105 -290.5t280 -113.5q74 0 157.5 31.5t143.5 79.5l53 -149q-72 -59 -180.5 -93t-208.5 -34 q-155 0 -277 70.5t-189 194t-67 277.5z" />
<glyph unicode="D" horiz-adv-x="1153" d="M88 0l176 1253h383q222 0 349.5 -139.5t127.5 -363.5q0 -108 -30 -216.5t-88 -204t-136 -169.5t-181.5 -117t-217.5 -43h-383zM285 164h151q55 0 82 2q94 6 175 60.5t133 135.5t81 175t29 184q0 70 -17 132t-50.5 113.5t-89.5 84t-128 36.5q-44 3 -86 3h-149z" />
<glyph unicode="E" horiz-adv-x="1091" d="M88 0l176 1253h803l-25 -163h-626l-51 -359h505l-22 -151h-504l-59 -416h628l-22 -164h-803z" />
<glyph unicode="F" horiz-adv-x="1069" d="M88 0l176 1253h803l-23 -163h-630l-49 -357h483l-23 -166h-483l-80 -567h-174z" />
<glyph unicode="G" horiz-adv-x="1234" d="M98 528q0 145 58.5 282t156 239t233 163.5t281.5 61.5q105 0 212.5 -35t170.5 -102l-96 -148q-47 50 -130 84.5t-153 34.5q-108 0 -208.5 -46t-173.5 -122t-116.5 -178t-43.5 -209q0 -183 112.5 -295.5t296.5 -112.5q58 0 114 21.5t95 60.5l56 396h174l-68 -482 q-49 -70 -186 -115.5t-238 -45.5q-239 0 -393 154.5t-154 393.5z" />
<glyph unicode="H" horiz-adv-x="1196" d="M88 0l176 1253h174l-71 -503h559l71 503h172l-176 -1253h-172l82 584h-559l-82 -584h-174z" />
<glyph unicode="I" horiz-adv-x="464" d="M88 0l176 1253h174l-176 -1253h-174z" />
<glyph unicode="J" horiz-adv-x="929" d="M72 88l96 150q35 -38 89.5 -61t107.5 -23q57 0 103 24.5t75.5 66t47 90t25.5 103.5l115 813h172l-90 -637q-11 -78 -18.5 -123.5t-25.5 -122t-37.5 -122.5t-54 -103.5t-76.5 -89t-103.5 -54t-135.5 -22.5q-179 0 -290 111z" />
<glyph unicode="K" horiz-adv-x="1081" d="M88 0l176 1253h174l-67 -487l520 487h203l-574 -563l463 -690h-211l-424 616l-86 -616h-174z" />
<glyph unicode="L" horiz-adv-x="716" d="M88 0l176 1253h174l-153 -1089h405l-22 -164h-580z" />
<glyph unicode="M" horiz-adv-x="1466" d="M88 0l176 1253h170l346 -518l490 518h170l-176 -1253h-174l141 1004l-486 -519l-342 514l-141 -999h-174z" />
<glyph unicode="N" horiz-adv-x="1196" d="M88 0l176 1253h178l422 -938l131 938h174l-176 -1253h-178l-424 926l-129 -926h-174z" />
<glyph unicode="O" horiz-adv-x="1255" d="M98 502q0 111 28.5 222t86 209.5t135 175t183 121t223.5 44.5q147 0 255.5 -72t162 -189.5t53.5 -262.5q0 -113 -28.5 -224t-85 -209t-133.5 -173.5t-182.5 -119.5t-224.5 -44q-148 0 -257 70.5t-162.5 187.5t-53.5 264zM287 512q0 -105 29 -187.5t99.5 -137t176.5 -54.5 q110 0 198.5 57t140 148t78.5 194.5t27 206.5q0 76 -17 142t-52 120t-95.5 85.5t-140.5 31.5q-110 0 -198 -57.5t-140 -149t-79 -194.5t-27 -205z" />
<glyph unicode="P" horiz-adv-x="1101" d="M88 0l176 1253h518q133 0 218 -101t85 -237q0 -79 -34 -160.5t-89.5 -145.5t-132.5 -105t-157 -41h-344l-66 -463h-174zM350 627h328q94 0 165.5 84t71.5 180q0 76 -48.5 137.5t-123.5 61.5h-327z" />
<glyph unicode="Q" horiz-adv-x="1253" d="M98 498q0 112 28.5 223t85.5 210t134.5 175.5t183 121t224.5 44.5q147 0 255 -72t161 -189t53 -263q0 -145 -44 -283.5t-137.5 -256.5t-222.5 -175l199 -277h-213l-166 234q-41 -8 -90 -8q-109 0 -196 41.5t-142 113t-84 164t-29 197.5zM287 510q0 -77 17 -143t52 -120 t95.5 -85t140.5 -31q110 0 198.5 57t140 147.5t78.5 193.5t27 206q0 77 -17 143t-52 120.5t-95.5 86t-140.5 31.5q-89 0 -164 -38t-125.5 -100t-86 -142t-52 -162.5t-16.5 -163.5z" />
<glyph unicode="R" horiz-adv-x="1122" d="M88 0l176 1253h527q131 0 215 -86t84 -219q0 -86 -39.5 -170.5t-111.5 -145.5t-157 -75l254 -557h-202l-236 532h-262l-74 -532h-174zM356 680h334q91 0 158 76.5t67 167.5q0 75 -46 128.5t-119 53.5h-334z" />
<glyph unicode="S" horiz-adv-x="1056" d="M76 106l100 156q51 -42 145 -79.5t156 -37.5q70 0 135 26t110.5 81t45.5 127q0 48 -29 86t-75 63t-102 48t-112 49.5t-102 59t-75 83.5t-29 117q0 76 26.5 140t72.5 109.5t107 77.5t129 47t140 15q87 0 175.5 -26.5t139.5 -80.5l-78 -135q-39 38 -109.5 61t-131.5 23 q-67 0 -131 -20.5t-113 -70t-49 -118.5q0 -40 29.5 -72t76.5 -54.5t103.5 -44.5t113 -48.5t103.5 -59.5t76.5 -86t29.5 -120q0 -127 -69.5 -229.5t-180 -157.5t-235.5 -55q-101 0 -212 33t-181 93z" />
<glyph unicode="T" horiz-adv-x="1155" d="M166 1094l22 159h986l-23 -159h-406l-153 -1094h-174l153 1094h-405z" />
<glyph unicode="U" d="M100 365q0 37 6 75l113 813h172l-115 -813q-2 -14 -2 -47q0 -106 66 -176t170 -70q120 0 209.5 86.5t107.5 206.5l115 813h170l-113 -813q-28 -197 -171.5 -328.5t-340.5 -131.5q-175 0 -281 105t-106 280z" />
<glyph unicode="V" horiz-adv-x="1163" d="M160 1253h192l195 -981l467 981h196l-602 -1253h-198z" />
<glyph unicode="W" horiz-adv-x="2035" d="M160 1253h190l199 -974l475 964h188l209 -964l469 974h193l-604 -1253h-197l-205 956l-469 -956h-198z" />
<glyph unicode="X" horiz-adv-x="1282" d="M55 0l512 672l-284 581h184l235 -467l375 467h183l-457 -581l325 -672h-182l-278 539l-430 -539h-183z" />
<glyph unicode="Y" horiz-adv-x="1083" d="M109 1253h180l258 -512l403 512h180l-520 -673l-80 -580h-176l82 580z" />
<glyph unicode="Z" horiz-adv-x="1183" d="M88 0l23 160l804 934h-641l23 159h862l-22 -159l-801 -934h670l-23 -160h-895z" />
<glyph unicode="[" horiz-adv-x="550" d="M33 -362l286 2043h377l-22 -159h-203l-242 -1725h203l-22 -159h-377z" />
<glyph unicode="\" horiz-adv-x="628" d="M66 1487h176l360 -1770h-176z" />
<glyph unicode="]" horiz-adv-x="550" d="M-29 -395l21 157h203l243 1727h-202l22 158h375l-287 -2042h-375z" />
<glyph unicode="^" horiz-adv-x="774" d="M84 729l346 678h158l157 -678h-151l-109 506l-249 -506h-152z" />
<glyph unicode="_" horiz-adv-x="1245" d="M84 -301l22 154h1115l-23 -154h-1114z" />
<glyph unicode="`" horiz-adv-x="903" d="M496 1518h182l63 -258h-143z" />
<glyph unicode="a" horiz-adv-x="1161" d="M106 430q0 91 22.5 182.5t67.5 175t107.5 148t149 103t184.5 38.5q82 0 164 -36t121 -101l16 111h176l-86 -605q-14 -93 -14 -161q0 -46 6.5 -79.5t32.5 -60.5q25 -26 68 -26h3l-57 -139q-83 0 -134.5 42.5t-90.5 124.5q-144 -167 -365 -167q-91 0 -163.5 38t-117 102 t-67.5 143.5t-23 166.5zM285 459q0 -134 67.5 -223t196.5 -89q43 0 106 21t118 60.5t63 82.5q5 24 9 53.5t8 65.5t7 55q2 17 16.5 108.5t20.5 139.5v10q0 52 -42.5 93t-97.5 60t-104 19q-85 0 -156.5 -41.5t-116.5 -108.5t-70 -146.5t-25 -159.5z" />
<glyph unicode="b" horiz-adv-x="1099" d="M84 0l203 1434h159l-65 -463q58 48 141 75t162 27q181 0 281 -121t100 -305q0 -90 -23.5 -184t-71 -180t-111.5 -154t-151 -108.5t-184 -40.5q-83 0 -143.5 25.5t-122.5 82.5l-12 -88h-162zM281 252q34 -51 98 -82t129 -31q85 0 159 44t121.5 113t75 152t27.5 164 q0 131 -73.5 219.5t-201.5 88.5q-61 0 -141.5 -32t-116.5 -77z" />
<glyph unicode="c" horiz-adv-x="1046" d="M106 432q0 122 43 237.5t117.5 205t184.5 144t235 54.5q91 0 185 -37t145 -102l-82 -119q-39 48 -109.5 75.5t-138.5 27.5q-108 0 -203 -67t-149.5 -169.5t-54.5 -208.5q0 -136 79 -234t211 -98q71 0 150 29t133 76l51 -121q-72 -64 -177 -104.5t-200 -40.5 q-192 0 -306 129t-114 323z" />
<glyph unicode="d" horiz-adv-x="1165" d="M106 436q0 124 37 238t105 203.5t173.5 143.5t233.5 54q69 0 142 -28t112 -76l66 463h162l-203 -1434h-160l12 88q-143 -111 -297 -111q-91 0 -165.5 39.5t-121 104.5t-71.5 146.5t-25 168.5zM289 455q0 -137 66.5 -229.5t197.5 -92.5q66 0 137.5 33.5t118.5 83.5l78 555 q-23 46 -96.5 77t-131.5 31q-70 0 -130.5 -27t-103.5 -73t-74.5 -105t-46.5 -123.5t-15 -129.5z" />
<glyph unicode="e" horiz-adv-x="999" d="M106 414q0 96 24 191t71.5 179.5t113 149.5t155.5 103t192 38q132 0 219.5 -78.5t87.5 -210.5q0 -85 -39 -149.5t-104 -101t-139.5 -54.5t-154.5 -18q-149 0 -243 63q-6 -99 -6 -102q0 -123 69.5 -209t188.5 -86q76 0 158 33t137 86l47 -127q-65 -66 -170.5 -103.5 t-204.5 -37.5q-190 0 -296 121t-106 313zM319 651q29 -27 92 -42t113 -15t96 9t90 29t70.5 59.5t26.5 92.5q0 69 -50.5 109.5t-121.5 40.5q-220 0 -316 -283z" />
<glyph unicode="f" horiz-adv-x="735" d="M102 -371l179 1278h-148l21 146h147q11 76 42.5 147t79.5 129t117 92.5t148 34.5q48 0 102 -15.5t87 -43.5l-70 -115q-39 29 -96 29q-104 0 -167.5 -75t-78.5 -183h313l-20 -146h-318l-178 -1278h-160z" />
<glyph unicode="g" d="M106 -268l93 133q31 -38 119 -66t147 -28q134 0 233 108.5t119 247.5q-111 -84 -278 -84q-187 0 -293.5 121.5t-106.5 310.5q0 150 64.5 286t188 224t276.5 88q178 0 268 -104l12 84h160l-111 -793q-6 -41 -18 -119q-16 -82 -45.5 -158t-76 -144t-104.5 -118.5 t-135.5 -80t-164.5 -29.5q-86 0 -192.5 33t-154.5 88zM313 504q0 -129 70.5 -214t196.5 -85q77 0 154.5 30.5t111.5 88.5l55 401q10 67 10 86q0 3 -6.5 12t-9.5 11q-72 86 -211 86q-109 0 -195.5 -60t-131 -154t-44.5 -202z" />
<glyph unicode="h" horiz-adv-x="1011" d="M84 0l203 1434h164l-78 -557q40 84 129.5 141t181.5 57q150 0 224.5 -83.5t74.5 -235.5q0 -35 -8 -105l-92 -651h-160l76 549q10 62 10 115q0 225 -199 225q-53 0 -97.5 -21t-75 -54t-54 -79t-37 -91.5t-20.5 -94.5l-78 -549h-164z" />
<glyph unicode="i" horiz-adv-x="458" d="M88 0l148 1053h163l-147 -1053h-164zM244 1257q0 47 36.5 82t84.5 35q38 0 65 -25t27 -63q0 -47 -37.5 -82t-83.5 -35q-39 0 -65.5 25t-26.5 63z" />
<glyph unicode="j" horiz-adv-x="591" d="M-195 -340l80 129q45 -31 111 -31q43 0 78 18.5t58 50t40.5 70.5t28 83.5t17.5 85.5t12 78q2 17 3 24l125 885h166l-135 -971q-11 -70 -29.5 -133.5t-51.5 -126.5t-75.5 -108.5t-105 -74t-137.5 -28.5q-47 0 -99.5 12.5t-85.5 36.5zM369 1260q0 47 36 81.5t82 34.5 q39 0 67 -25.5t28 -64.5q0 -45 -38.5 -80t-84.5 -35q-37 0 -63.5 25.5t-26.5 63.5z" />
<glyph unicode="k" horiz-adv-x="1001" d="M100 0l201 1434h162l-103 -732l422 351h213l-512 -435l469 -618h-211l-407 524l-72 -524h-162z" />
<glyph unicode="l" horiz-adv-x="573" d="M100 274q0 30 9 127l145 1033h168l-143 -1031q-9 -79 -9 -102q0 -170 117 -170q62 0 115 35l41 -131q-91 -58 -207 -58q-53 0 -94.5 16t-67.5 43t-43 65.5t-24 80.5t-7 92z" />
<glyph unicode="m" horiz-adv-x="1648" d="M84 0l147 1053h166l-24 -166q46 82 132.5 135t178.5 53q247 0 291 -219q50 101 142.5 160t203.5 59q148 0 222.5 -86t74.5 -237q0 -57 -8 -101l-90 -651h-164l78 549q10 62 10 115q0 225 -197 225q-63 0 -115 -29.5t-85 -78.5t-53.5 -105t-28.5 -117l-80 -559h-164 l78 549q10 62 10 115q0 225 -199 225q-53 0 -97.5 -21t-75 -54t-54 -79t-37 -91.5t-20.5 -94.5l-78 -549h-164z" />
<glyph unicode="n" horiz-adv-x="1011" d="M84 0l147 1053h166l-24 -176q40 84 129.5 141t181.5 57q150 0 224.5 -82t74.5 -233q0 -35 -8 -109l-92 -651h-160l76 549q10 62 10 115q0 225 -199 225q-53 0 -97.5 -21t-75 -54t-54 -79t-37 -91.5t-20.5 -94.5l-78 -549h-164z" />
<glyph unicode="o" horiz-adv-x="1122" d="M106 420q0 95 26 189.5t76 176.5t118 145t158 99.5t190 36.5q188 0 298.5 -127t110.5 -319q0 -95 -25.5 -189t-75 -176.5t-116.5 -145.5t-156.5 -100t-189.5 -37q-189 0 -301.5 128t-112.5 319zM283 446q0 -60 15.5 -117t46 -104.5t81.5 -76.5t115 -29q68 0 128.5 30 t103 79.5t73.5 112t46 129t15 128.5t-15 118t-44.5 102.5t-80 74t-116.5 27.5t-125.5 -30t-102.5 -79t-75.5 -111t-48.5 -127.5t-16 -126.5z" />
<glyph unicode="p" horiz-adv-x="1148" d="M84 -371l201 1424h159l-12 -97q76 60 144 89.5t153 29.5q121 0 210 -67.5t131 -169.5t42 -220q0 -115 -35.5 -227.5t-100 -204.5t-166 -149t-222.5 -57q-186 0 -279 112l-63 -463h-162zM332 242q23 -47 95 -79t130 -32q89 0 162.5 42t120 110t71.5 149.5t25 165.5 q0 87 -28 157t-90.5 115t-149.5 45q-68 0 -140 -33t-118 -85z" />
<glyph unicode="q" horiz-adv-x="1114" d="M106 403q0 91 22.5 185t68.5 181.5t108.5 155.5t150 109t185.5 41q82 0 145.5 -28.5t126.5 -88.5l13 95h159l-198 -1424h-162l66 463q-124 -112 -302 -112q-184 0 -283.5 117.5t-99.5 305.5zM287 442q0 -129 71.5 -215t198.5 -86q59 0 141.5 33.5t114.5 77.5l76 541 q-33 54 -96.5 86t-128.5 32q-86 0 -159 -43t-119.5 -111.5t-72.5 -150.5t-26 -164z" />
<glyph unicode="r" horiz-adv-x="720" d="M78 0l147 1053h166l-26 -176q41 83 131 139.5t182 56.5q44 0 127 -22l-105 -172q-43 16 -79 16q-70 0 -126 -32t-91 -86.5t-56 -114t-31 -127.5l-75 -535h-164z" />
<glyph unicode="s" horiz-adv-x="942" d="M84 88l92 143q48 -42 117 -70t131 -28q87 0 157 51t70 135q0 37 -23.5 66t-61 49t-82.5 39t-90 41.5t-82.5 50t-61 71t-23.5 99.5q0 102 60 181.5t150 119t190 39.5q78 0 163 -25t121 -75l-73 -121q-35 33 -94.5 52.5t-112.5 19.5q-48 0 -98 -18.5t-86.5 -58t-36.5 -89.5 q0 -34 24 -61.5t62 -47.5t84 -39t92 -42.5t84 -52t62 -73t24 -100.5q0 -108 -60.5 -193t-154.5 -128t-201 -43q-89 0 -184 28.5t-158 79.5z" />
<glyph unicode="t" horiz-adv-x="765" d="M100 907l21 146h145l41 286h162l-41 -286h309l-20 -146h-309l-68 -501q-10 -62 -10 -109q0 -164 119 -164q55 0 112 37l39 -129q-95 -61 -201 -61q-119 0 -177 84t-58 210q0 42 6 88l76 545h-146z" />
<glyph unicode="u" horiz-adv-x="1011" d="M84 305q0 37 8 111l88 637h164l-78 -559q-8 -74 -8 -115q0 -225 195 -225q66 0 119 30.5t86 82t53.5 108t29.5 119.5l78 559h164l-147 -1053h-164l24 176q-40 -83 -130.5 -141t-182.5 -58q-152 0 -225.5 86.5t-73.5 241.5z" />
<glyph unicode="v" horiz-adv-x="956" d="M125 1053h168l143 -793l367 793h172l-494 -1053h-164z" />
<glyph unicode="w" horiz-adv-x="1642" d="M125 1053h172l139 -793l367 787h176l145 -787l363 793h176l-494 -1053h-163l-146 813l-377 -813h-166z" />
<glyph unicode="x" horiz-adv-x="1069" d="M43 0l440 557l-241 496h168l188 -361l291 361h174l-385 -496l276 -557h-176l-219 410l-334 -410h-182z" />
<glyph unicode="y" horiz-adv-x="989" d="M-8 -319l82 126q59 -34 104 -34q42 0 88.5 53t75 110t43.5 105l-205 1012h176l148 -779l364 779h170q-40 -83 -221.5 -471t-286.5 -592q-3 -6 -22.5 -44t-26 -50t-26.5 -48t-31 -50.5t-32.5 -44.5t-37 -44t-39.5 -34.5t-45.5 -29.5t-48.5 -16.5t-55 -7.5q-36 0 -94 18.5 t-80 41.5z" />
<glyph unicode="z" horiz-adv-x="1021" d="M84 0l20 147l670 760h-522l20 146h719l-20 -146l-668 -760h574l-21 -147h-772z" />
<glyph unicode="{" horiz-adv-x="573" d="M47 657l172 154l82 586q19 126 108 204t216 78h92l-21 -157q-96 0 -154 -35t-71 -125l-84 -594l-127 -111l96 -104l-84 -600q0 -4 -1 -13.5t-1 -13.5q0 -42 14.5 -69.5t42.5 -40t56.5 -17t69.5 -4.5l-23 -157h-94q-110 0 -178 61.5t-68 171.5q0 17 4 49l82 590z" />
<glyph unicode="|" horiz-adv-x="552" d="M66 -362l286 2050h174l-288 -2050h-172z" />
<glyph unicode="}" horiz-adv-x="647" d="M-29 -362l21 157q96 0 154 35t71 125l84 598l125 104l-94 111l84 594q0 5 1 15t1 14q0 42 -14.5 69.5t-42.5 40t-56 17t-69 4.5l22 157h94q110 0 178 -61.5t68 -171.5q0 -17 -4 -49l-82 -586l129 -152l-172 -149l-82 -590q-19 -126 -108 -204t-216 -78h-92z" />
<glyph unicode="~" horiz-adv-x="858" d="M84 934q48 70 115.5 114t144.5 44q46 0 123 -31t121 -31q81 0 129 70l112 -64q-103 -145 -239 -145q-49 0 -126.5 32.5t-121.5 32.5q-45 0 -86 -23.5t-68 -62.5z" />
<glyph unicode="&#xa1;" horiz-adv-x="473" d="M111 -86l213 1137h141l-113 -1137h-241zM315 1296q0 50 39.5 87.5t89.5 37.5q42 0 71.5 -26.5t29.5 -67.5q0 -52 -39.5 -89.5t-91.5 -37.5q-40 0 -69.5 27.5t-29.5 68.5z" />
<glyph unicode="&#xa2;" horiz-adv-x="1202" d="M106 516q0 133 47.5 261t129.5 228.5t200 169.5t252 85l23 165h119l-23 -161q89 -7 178 -39t142 -88l-97 -148q-46 49 -122 79t-146 30q-143 0 -264.5 -79t-189.5 -206t-68 -270q0 -175 106 -289.5t281 -114.5q74 0 157.5 31.5t143.5 79.5l53 -150q-68 -53 -164.5 -86 t-189.5 -39l-25 -163h-119l25 168q-137 18 -240 94t-156 190.5t-53 251.5z" />
<glyph unicode="&#xa3;" horiz-adv-x="1081" d="M72 4l20 137h25q46 0 91 54.5t76.5 132t52.5 146t28 112.5h-201l16 112h201q8 78 30 156t62 154t91.5 134t125.5 94t158 36q69 0 140 -24.5t106 -71.5l-72 -109q-33 31 -82.5 49.5t-95.5 18.5q-60 0 -110.5 -30t-83.5 -74.5t-58.5 -106.5t-39 -115t-22.5 -111h271 l-17 -112h-270q-11 -88 -72.5 -250t-113.5 -195h518l-21 -137h-753z" />
<glyph unicode="&#xa4;" horiz-adv-x="1193" d="M125 152l166 143q-39 74 -39 168q0 172 100 299l-121 141l131 117l119 -141q115 75 244 75q135 0 227 -80l162 146l100 -117l-170 -149q35 -66 35 -156q0 -172 -102 -295l131 -151l-131 -115l-123 145q-115 -76 -248 -76q-128 0 -221 72l-160 -141zM377 487 q0 -105 71 -178t177 -73q135 0 231 101t96 238q0 108 -68.5 178t-176.5 70q-130 0 -230 -103t-100 -233z" />
<glyph unicode="&#xa5;" horiz-adv-x="1134" d="M160 1253h180l260 -503l401 503h181l-496 -639h238l-15 -110h-258l-12 -84h258l-16 -111h-256l-45 -309h-174l45 309h-258l16 111h256l12 84h-256l15 110h237z" />
<glyph unicode="&#xa6;" horiz-adv-x="722" d="M117 -367l110 791h174l-112 -791h-172zM248 565l110 791h172l-110 -791h-172z" />
<glyph unicode="&#xa7;" horiz-adv-x="1208" d="M84 -254l98 154q51 -42 146 -79.5t157 -37.5q68 0 133 25.5t110.5 80t45.5 125.5q0 42 -22.5 77t-59.5 58t-84 46.5t-96 42.5t-96 46t-84 57t-59.5 75.5t-22.5 101.5q0 105 55 193.5t148 138.5q-68 68 -68 156q0 76 27.5 140t74 109.5t108 77.5t129.5 47t138 15 q88 0 176.5 -26.5t141.5 -80.5l-78 -135q-41 38 -112 61t-132 23t-125 -19.5t-115 -67t-51 -112.5q0 -44 29.5 -78t76 -58t103 -46t113.5 -48.5t103.5 -59.5t76 -85t29.5 -118q0 -101 -48 -194t-130 -152q41 -61 41 -142q0 -95 -41 -178t-108 -139t-154 -88.5t-179 -32.5 q-103 0 -213.5 33t-181.5 94zM432 545q0 -39 27.5 -72t74.5 -55.5t93 -39.5t98 -34t76 -29q50 32 81 82.5t31 106.5q0 33 -16.5 63t-36.5 49.5t-58.5 40.5t-61.5 30.5t-68 26t-56 21.5q-76 -19 -130 -69t-54 -121z" />
<glyph unicode="&#xa8;" horiz-adv-x="770" d="M100 1438q0 44 34.5 78t78.5 34q36 0 60 -24t24 -60q0 -44 -34.5 -78t-78.5 -34q-35 0 -59.5 24.5t-24.5 59.5zM516 1438q0 44 34.5 78t78.5 34q37 0 61.5 -23.5t24.5 -60.5q0 -44 -34.5 -78t-78.5 -34q-37 0 -61.5 23.5t-24.5 60.5z" />
<glyph unicode="&#xa9;" horiz-adv-x="1503" d="M100 520q0 150 65 292t171 246.5t249 168t292 63.5q165 0 299.5 -74.5t211 -208t76.5 -298.5q0 -150 -64.5 -292.5t-170 -247t-248.5 -167.5t-293 -63q-165 0 -299.5 74.5t-211.5 208t-77 298.5zM162 526q0 -226 153 -376t381 -150q136 0 266 57.5t226.5 152t155.5 223.5 t59 265q0 150 -70 271.5t-192.5 189.5t-272.5 68q-136 0 -265.5 -57.5t-226 -152.5t-155.5 -224.5t-59 -266.5zM403 545q0 125 56.5 233t160 174t228.5 66q69 0 142 -28t112 -77l-64 -90q-32 36 -86.5 57t-105.5 21q-124 0 -217.5 -100.5t-93.5 -225.5q0 -104 62 -174.5 t165 -70.5q55 0 115.5 21.5t101.5 56.5l39 -91q-55 -47 -136 -76.5t-153 -29.5q-146 0 -236 94t-90 240z" />
<glyph unicode="&#xaa;" horiz-adv-x="733" d="M72 860q0 74 22 145.5t62.5 130.5t105 95.5t141.5 36.5q103 0 179 -76l8 61h117q-4 -27 -22 -137.5t-29 -200t-11 -149.5q0 -45 15 -68.5t57 -23.5l-41 -94q-112 0 -144 96q-43 -45 -102.5 -70.5t-122.5 -25.5q-114 0 -174.5 81.5t-60.5 198.5zM188 885q0 -83 41 -139 t121 -56q46 0 101 28t73 66q6 15 15 93q3 19 10 56.5t11.5 69t4.5 56.5q0 45 -50.5 73.5t-98.5 28.5q-100 0 -164 -86t-64 -190z" />
<glyph unicode="&#xab;" horiz-adv-x="966" d="M84 555l293 428h178l-287 -428l166 -428h-178zM471 555l293 428h176l-285 -428l166 -428h-178z" />
<glyph unicode="&#xac;" horiz-adv-x="972" d="M84 731l22 158h842l-63 -447h-170l41 289h-672z" />
<glyph unicode="&#xad;" horiz-adv-x="917" d="M84 551l22 156h787l-23 -156h-786z" />
<glyph unicode="&#xae;" horiz-adv-x="1499" d="M100 520q0 150 65 292t171 246.5t249 168t292 63.5q165 0 299.5 -74.5t211 -208t76.5 -298.5q0 -150 -64.5 -292.5t-170 -247t-248.5 -167.5t-293 -63q-165 0 -299.5 74.5t-211.5 208t-77 298.5zM162 526q0 -226 153 -376t381 -150q136 0 266 57.5t226.5 152t155.5 223.5 t59 265q0 150 -70 271.5t-192.5 189.5t-272.5 68q-136 0 -265.5 -57.5t-226 -152.5t-155.5 -224.5t-59 -266.5zM489 256l101 711h297q76 0 124 -49t48 -125q0 -74 -48 -140.5t-118 -83.5l141 -313h-127v2l-133 295h-135l-41 -297h-109zM653 647h181q46 0 81 42t35 89 q0 38 -24.5 66t-61.5 28h-180z" />
<glyph unicode="&#xaf;" horiz-adv-x="911" d="M84 1352l16 116h785l-17 -116h-784z" />
<glyph unicode="&#xb0;" horiz-adv-x="724" d="M100 997q0 124 92 213.5t216 89.5q99 0 165 -63t66 -162q0 -123 -91 -214t-214 -91q-101 0 -167.5 63.5t-66.5 163.5zM207 1014q0 -60 39.5 -100t99.5 -40q74 0 131.5 56.5t57.5 130.5q0 60 -41.5 98.5t-102.5 38.5q-74 0 -129 -54.5t-55 -129.5z" />
<glyph unicode="&#xb1;" horiz-adv-x="1001" d="M84 63l22 154h785l-23 -154h-784zM166 659l22 154h306l45 315h172l-43 -315h305l-23 -154h-305l-43 -315h-174l45 315h-307z" />
<glyph unicode="&#xb2;" horiz-adv-x="540" d="M31 592q10 74 16 94q16 52 59 100t93 83.5t98 69t79.5 70t31.5 72.5q0 39 -33 58.5t-76 19.5q-80 0 -158 -61l-28 90q43 38 103.5 61t117.5 23q81 0 138.5 -40t57.5 -118q0 -51 -27 -97t-69 -83.5t-86.5 -71.5t-87.5 -75.5t-63 -81.5h297l-17 -113h-446z" />
<glyph unicode="&#xb3;" horiz-adv-x="542" d="M31 662l59 88q27 -27 68 -43.5t80 -16.5q59 0 103 35t44 92q0 15 -4.5 27t-14 20.5t-19 14.5t-26 10t-27.5 6t-30.5 3t-28.5 1h-28h-23l13 88l168 164h-234l14 104h390l-15 -96l-160 -160q67 -12 107.5 -57t40.5 -111q0 -107 -83.5 -179t-193.5 -72q-51 0 -110 23t-90 59 z" />
<glyph unicode="&#xb4;" horiz-adv-x="512" d="M203 1260l137 258h182l-176 -258h-143z" />
<glyph unicode="&#xb6;" horiz-adv-x="968" d="M100 989q0 112 86 196.5t197 84.5h594l-16 -117h-142l-188 -1335h-123l186 1335h-205l-188 -1335h-123l135 960q-91 0 -152 59.5t-61 151.5z" />
<glyph unicode="&#xb8;" horiz-adv-x="1337" d="M467 -264l207 313h121l-156 -323z" />
<glyph unicode="&#xb9;" horiz-adv-x="313" d="M51 1184q38 20 104 45.5t93 25.5h65l-94 -661h-121l76 534l-111 -47z" />
<glyph unicode="&#xba;" horiz-adv-x="763" d="M106 862q0 101 44.5 193t128.5 152.5t186 60.5q120 0 191 -81.5t71 -203.5q0 -75 -26.5 -148t-72.5 -130t-114.5 -92t-146.5 -35q-119 0 -190 81.5t-71 202.5zM233 881q0 -76 39 -134.5t111 -58.5q65 0 115.5 45t75 108t24.5 126q0 78 -37.5 133t-111.5 55 q-62 0 -113 -45t-77 -107t-26 -122z" />
<glyph unicode="&#xbb;" horiz-adv-x="966" d="M84 135l287 428l-166 428h178l172 -428l-293 -428h-178zM471 135l287 428l-166 428h176l172 -428l-291 -428h-178z" />
<glyph unicode="&#xbf;" horiz-adv-x="858" d="M100 195q0 123 62.5 228.5t169 167.5t229.5 62l47 336h152l-66 -461h-86q-136 0 -230.5 -79.5t-94.5 -212.5q0 -88 63 -135.5t154 -47.5q50 0 117 23.5t114 54.5l33 -135q-58 -41 -156 -68.5t-174 -27.5q-144 0 -239 77.5t-95 217.5zM610 1249q0 51 39 88t90 37 q42 0 71.5 -26.5t29.5 -67.5q0 -50 -39.5 -87.5t-91.5 -37.5q-41 0 -70 27t-29 67z" />
<glyph unicode="&#xc0;" horiz-adv-x="1126" d="M16 0l586 1253h232l231 -1253h-178l-66 334h-465l-159 -334h-181zM422 489h379l-111 576zM573 1696h183l63 -258h-143z" />
<glyph unicode="&#xc1;" horiz-adv-x="1126" d="M16 0l586 1253h232l231 -1253h-178l-66 334h-465l-159 -334h-181zM422 489h379l-111 576zM649 1436l137 258h183l-176 -258h-144z" />
<glyph unicode="&#xc2;" horiz-adv-x="1126" d="M16 0l586 1253h232l231 -1253h-178l-66 334h-465l-159 -334h-181zM422 489h379l-111 576zM539 1430l159 274h164l82 -274h-117l-59 178l-111 -178h-118z" />
<glyph unicode="&#xc3;" horiz-adv-x="1193" d="M16 0l586 1253h232l231 -1253h-178l-66 334h-465l-159 -334h-181zM391 1489q38 65 110.5 106t147.5 41q47 0 127 -30.5t125 -30.5q83 0 129 65l113 -59q-37 -63 -95 -102t-126 -39q-58 0 -140 31.5t-127 31.5q-101 0 -161 -84zM422 489h379l-111 576z" />
<glyph unicode="&#xc4;" d="M16 0l586 1253h232l231 -1253h-178l-66 334h-465l-159 -334h-181zM422 489h379l-111 576zM446 1507q0 44 34.5 78.5t78.5 34.5q35 0 59.5 -24.5t24.5 -59.5q0 -45 -34 -79t-79 -34q-36 0 -60 24t-24 60zM862 1507q0 44 34.5 78.5t80.5 34.5q35 0 59.5 -24.5t24.5 -59.5 q0 -45 -34 -79t-79 -34q-37 0 -61.5 23.5t-24.5 60.5z" />
<glyph unicode="&#xc5;" horiz-adv-x="1118" d="M16 0l586 1253h232l231 -1253h-178l-66 334h-465l-159 -334h-181zM422 489h379l-111 576zM575 1507q0 83 61.5 143t145.5 60q66 0 110 -42t44 -109q0 -82 -61.5 -143.5t-143.5 -61.5q-67 0 -111.5 43t-44.5 110zM664 1524q0 -34 22 -58t55 -24q41 0 75 31.5t34 72.5 q0 33 -24.5 56.5t-57.5 23.5q-40 0 -72 -31t-32 -71z" />
<glyph unicode="&#xc6;" horiz-adv-x="1564" d="M16 0l600 1253h904l-23 -163h-629l-51 -357h506l-20 -151h-506l-60 -418h629l-23 -164h-802l47 334h-234l-159 -334h-179zM422 489h188l80 576z" />
<glyph unicode="&#xc7;" horiz-adv-x="1189" d="M98 524q0 144 56 281t150.5 240t228 166t280.5 63q94 0 194 -34.5t158 -96.5l-94 -148q-46 50 -122.5 80.5t-147.5 30.5q-108 0 -205.5 -47t-165.5 -123.5t-108.5 -177.5t-40.5 -207q0 -177 105 -290.5t280 -113.5q78 0 159.5 30t141.5 81l53 -149q-72 -59 -185.5 -93 t-213.5 -32l-125 -252l-166 14l164 252q-186 40 -291 185t-105 341z" />
<glyph unicode="&#xc8;" horiz-adv-x="1091" d="M88 0l176 1253h803l-25 -163h-626l-51 -359h505l-22 -151h-504l-59 -416h628l-22 -164h-803zM557 1694h182l64 -258h-144z" />
<glyph unicode="&#xc9;" horiz-adv-x="1091" d="M88 0l176 1253h803l-25 -163h-626l-51 -359h505l-22 -151h-504l-59 -416h628l-22 -164h-803zM600 1436l137 258h183l-177 -258h-143z" />
<glyph unicode="&#xca;" horiz-adv-x="1091" d="M88 0l176 1253h803l-25 -163h-626l-51 -359h505l-22 -151h-504l-59 -416h628l-22 -164h-803zM502 1432l160 274h165l82 -274h-118l-60 178l-108 -178h-121z" />
<glyph unicode="&#xcb;" horiz-adv-x="1091" d="M88 0l176 1253h803l-25 -163h-626l-51 -359h505l-22 -151h-504l-59 -416h628l-22 -164h-803zM403 1503q0 44 34.5 78.5t78.5 34.5q35 0 59.5 -24.5t24.5 -59.5q0 -44 -34.5 -78.5t-78.5 -34.5q-35 0 -59.5 24.5t-24.5 59.5zM819 1503q0 44 34.5 78.5t78.5 34.5 q37 0 61.5 -24.5t24.5 -59.5q0 -44 -34.5 -78.5t-78.5 -34.5q-37 0 -61.5 23.5t-24.5 60.5z" />
<glyph unicode="&#xcc;" horiz-adv-x="503" d="M88 0l176 1253h174l-176 -1253h-174zM207 1696h182l64 -258h-144z" />
<glyph unicode="&#xcd;" horiz-adv-x="509" d="M88 0l176 1253h174l-176 -1253h-174zM301 1438l137 258h183l-177 -258h-143z" />
<glyph unicode="&#xce;" horiz-adv-x="483" d="M88 0l176 1253h174l-176 -1253h-174zM174 1432l160 274h164l82 -274h-117l-62 178l-108 -178h-119z" />
<glyph unicode="&#xcf;" horiz-adv-x="499" d="M76 1503q0 44 34 78.5t78 34.5q35 0 59.5 -24.5t24.5 -59.5q0 -44 -34 -78.5t-78 -34.5q-35 0 -59.5 24.5t-24.5 59.5zM82 0l176 1253h174l-176 -1253h-174zM492 1503q0 44 34 78.5t78 34.5q37 0 61.5 -24.5t24.5 -59.5q0 -44 -34 -78.5t-78 -34.5q-37 0 -61.5 23.5 t-24.5 60.5z" />
<glyph unicode="&#xd0;" horiz-adv-x="1271" d="M88 565l18 133h164l78 555h418q219 0 348 -144t129 -366q0 -133 -49.5 -266t-133.5 -239t-208 -172t-262 -66h-418l80 565h-164zM369 164h243q80 0 151.5 34.5t124 91.5t91 129.5t57.5 150t19 151.5q0 101 -33 182.5t-106 134t-175 52.5h-243l-56 -392h301l-20 -133h-299 z" />
<glyph unicode="&#xd1;" horiz-adv-x="1196" d="M88 0l176 1253h178l422 -938l131 938h174l-176 -1253h-178l-424 926l-129 -926h-174zM381 1489q38 65 111 106t149 41q46 0 125.5 -30.5t124.5 -30.5q84 0 129 67l110 -61q-35 -63 -93.5 -102t-127.5 -39q-56 0 -138 32.5t-128 32.5q-100 0 -160 -86z" />
<glyph unicode="&#xd2;" horiz-adv-x="1253" d="M98 502q0 111 28.5 222t86 209.5t135 175t183 121t223.5 44.5q147 0 255.5 -72t162 -189.5t53.5 -262.5q0 -113 -28.5 -224t-85 -209t-133.5 -173.5t-182.5 -119.5t-224.5 -44q-148 0 -257 70.5t-162.5 187.5t-53.5 264zM287 512q0 -105 29 -187.5t99.5 -137t176.5 -54.5 q110 0 198.5 57t140 148t78.5 194.5t27 206.5q0 76 -17 142t-52 120t-95.5 85.5t-140.5 31.5q-110 0 -198 -57.5t-140 -149t-79 -194.5t-27 -205zM641 1698h182l66 -258h-146z" />
<glyph unicode="&#xd3;" horiz-adv-x="1253" d="M98 502q0 111 28.5 222t86 209.5t135 175t183 121t223.5 44.5q147 0 255.5 -72t162 -189.5t53.5 -262.5q0 -113 -28.5 -224t-85 -209t-133.5 -173.5t-182.5 -119.5t-224.5 -44q-148 0 -257 70.5t-162.5 187.5t-53.5 264zM287 512q0 -105 29 -187.5t99.5 -137t176.5 -54.5 q110 0 198.5 57t140 148t78.5 194.5t27 206.5q0 76 -17 142t-52 120t-95.5 85.5t-140.5 31.5q-110 0 -198 -57.5t-140 -149t-79 -194.5t-27 -205zM666 1438l137 258h182l-176 -258h-143z" />
<glyph unicode="&#xd4;" horiz-adv-x="1253" d="M98 502q0 111 28.5 222t86 209.5t135 175t183 121t223.5 44.5q147 0 255.5 -72t162 -189.5t53.5 -262.5q0 -113 -28.5 -224t-85 -209t-133.5 -173.5t-182.5 -119.5t-224.5 -44q-148 0 -257 70.5t-162.5 187.5t-53.5 264zM287 512q0 -105 29 -187.5t99.5 -137t176.5 -54.5 q110 0 198.5 57t140 148t78.5 194.5t27 206.5q0 76 -17 142t-52 120t-95.5 85.5t-140.5 31.5q-110 0 -198 -57.5t-140 -149t-79 -194.5t-27 -205zM571 1432l160 274h164l82 -274h-117l-61 178l-109 -178h-119z" />
<glyph unicode="&#xd5;" horiz-adv-x="1253" d="M98 502q0 111 28.5 222t86 209.5t135 175t183 121t223.5 44.5q147 0 255.5 -72t162 -189.5t53.5 -262.5q0 -113 -28.5 -224t-85 -209t-133.5 -173.5t-182.5 -119.5t-224.5 -44q-148 0 -257 70.5t-162.5 187.5t-53.5 264zM287 512q0 -105 29 -187.5t99.5 -137t176.5 -54.5 q110 0 198.5 57t140 148t78.5 194.5t27 206.5q0 76 -17 142t-52 120t-95.5 85.5t-140.5 31.5q-110 0 -198 -57.5t-140 -149t-79 -194.5t-27 -205zM422 1489q40 65 112.5 106t147.5 41q46 0 126.5 -30.5t125.5 -30.5q43 0 72.5 15t54.5 50l113 -59q-35 -63 -94 -102t-128 -39 q-57 0 -138.5 31.5t-127.5 31.5q-103 0 -160 -84z" />
<glyph unicode="&#xd6;" horiz-adv-x="1253" d="M98 502q0 111 28.5 222t86 209.5t135 175t183 121t223.5 44.5q147 0 255.5 -72t162 -189.5t53.5 -262.5q0 -113 -28.5 -224t-85 -209t-133.5 -173.5t-182.5 -119.5t-224.5 -44q-148 0 -257 70.5t-162.5 187.5t-53.5 264zM287 512q0 -105 29 -187.5t99.5 -137t176.5 -54.5 q110 0 198.5 57t140 148t78.5 194.5t27 206.5q0 76 -17 142t-52 120t-95.5 85.5t-140.5 31.5q-110 0 -198 -57.5t-140 -149t-79 -194.5t-27 -205zM481 1520q0 43 34.5 77.5t78.5 34.5q35 0 59.5 -24.5t24.5 -61.5q0 -44 -34 -77t-79 -33q-36 0 -60 24t-24 60zM897 1520 q0 44 34.5 78t80.5 34q35 0 59.5 -24.5t24.5 -61.5q0 -44 -34 -77t-79 -33q-37 0 -61.5 23.5t-24.5 60.5z" />
<glyph unicode="&#xd7;" horiz-adv-x="808" d="M70 424l254 223l-191 223l123 109l193 -223l253 223l99 -115l-254 -223l186 -217l-125 -107l-184 215l-256 -223z" />
<glyph unicode="&#xd8;" horiz-adv-x="1257" d="M98 504q0 111 28.5 222t86 209.5t135 175t183 121t223.5 44.5q102 0 188 -45l111 194h121l-140 -239q98 -73 144.5 -187.5t46.5 -246.5q0 -113 -28.5 -224t-85 -209t-133.5 -173.5t-182.5 -119.5t-224.5 -44q-108 0 -194 45l-103 -170h-118l127 217q-95 73 -140 186 t-45 244zM287 516q0 -171 82 -276l495 845q-59 35 -133 35q-88 0 -163 -38t-125.5 -99.5t-86.5 -141.5t-52.5 -162.5t-16.5 -162.5zM453 174q55 -39 139 -39q89 0 164.5 37.5t126 99t86 140.5t51.5 161.5t16 163.5q0 184 -86 283z" />
<glyph unicode="&#xd9;" d="M100 365q0 37 6 75l113 813h172l-115 -813q-2 -14 -2 -47q0 -106 66 -176t170 -70q120 0 209.5 86.5t107.5 206.5l115 813h170l-113 -813q-28 -197 -171.5 -328.5t-340.5 -131.5q-175 0 -281 105t-106 280zM545 1694h182l66 -258h-144z" />
<glyph unicode="&#xda;" d="M100 365q0 37 6 75l113 813h172l-115 -813q-2 -14 -2 -47q0 -106 66 -176t170 -70q120 0 209.5 86.5t107.5 206.5l115 813h170l-113 -813q-28 -197 -171.5 -328.5t-340.5 -131.5q-175 0 -281 105t-106 280zM588 1436l137 258h182l-176 -258h-143z" />
<glyph unicode="&#xdb;" d="M100 365q0 37 6 75l113 813h172l-115 -813q-2 -14 -2 -47q0 -106 66 -176t170 -70q120 0 209.5 86.5t107.5 206.5l115 813h170l-113 -813q-28 -197 -171.5 -328.5t-340.5 -131.5q-175 0 -281 105t-106 280zM487 1432l160 274h164l82 -274h-117l-61 178l-109 -178h-119z " />
<glyph unicode="&#xdc;" d="M100 365q0 37 6 75l113 813h172l-115 -813q-2 -14 -2 -47q0 -106 66 -176t170 -70q120 0 209.5 86.5t107.5 206.5l115 813h170l-113 -813q-28 -197 -171.5 -328.5t-340.5 -131.5q-175 0 -281 105t-106 280zM395 1501q0 44 34 79.5t77 35.5q37 0 61.5 -24.5t24.5 -61.5 q0 -44 -34.5 -77.5t-78.5 -33.5q-35 0 -59.5 23.5t-24.5 58.5zM811 1503q0 44 34.5 78.5t78.5 34.5q37 -2 61.5 -26t24.5 -60q0 -44 -34.5 -77.5t-78.5 -33.5q-37 0 -61.5 23.5t-24.5 60.5z" />
<glyph unicode="&#xdd;" horiz-adv-x="1083" d="M109 1253h180l258 -512l403 512h180l-520 -673l-80 -580h-176l82 580zM571 1438l138 258h182l-176 -258h-144z" />
<glyph unicode="&#xde;" horiz-adv-x="1058" d="M88 0l191 1358h163l-39 -285h60q51 -1 105 0.5t108 -5t103.5 -16t93 -33t75 -55.5t50 -83t18.5 -117q0 -190 -121 -307.5t-313 -128.5q-42 -3 -88 -3.5t-109 0.5t-88 1l-45 -326h-164zM322 489h174q60 0 104 4t94 18.5t81 40t52 72.5t21 111q0 48 -19 81.5t-45 51 t-69.5 26.5t-74.5 11t-79 2h-182z" />
<glyph unicode="&#xdf;" horiz-adv-x="1050" d="M88 0l115 813q28 200 151.5 329.5t319.5 129.5q44 0 87 -7.5t85 -25t74 -43t51.5 -65.5t19.5 -89q0 -50 -20.5 -96t-49.5 -80t-58 -64.5t-49.5 -61t-20.5 -58.5q0 -27 22.5 -55t55 -55.5t64.5 -59.5t54.5 -78t22.5 -100q0 -94 -56.5 -177t-144 -130t-180.5 -47 q-53 0 -111.5 16.5t-99.5 46.5l72 127q76 -45 141 -45q82 0 145.5 67t63.5 148q0 46 -24.5 83.5t-59.5 63.5t-70 51.5t-59.5 59.5t-24.5 74q0 42 22 78.5t54 63t63.5 53t53.5 62t22 77.5q0 63 -49 92.5t-117 29.5q-49 0 -92 -17.5t-74.5 -47t-56 -69t-39.5 -83t-22 -90.5 l-113 -821h-168z" />
<glyph unicode="&#xe0;" horiz-adv-x="1177" d="M106 432q0 90 22.5 181.5t68 174.5t107.5 147.5t148 103t183 38.5q83 0 167 -36t124 -101l16 111h188l-86 -607q-14 -96 -14 -165q0 -34 4 -60t14.5 -52.5t34 -41t58.5 -14.5l-70 -131q-83 0 -134.5 42.5t-90.5 124.5q-144 -167 -365 -167q-73 0 -135.5 25t-106 68 t-74 101t-45 123t-14.5 135zM289 459q0 -133 68 -222.5t196 -89.5q43 0 106 21t118 60.5t63 82.5q11 50 24 174q2 17 16.5 108.5t20.5 139.5v10q0 52 -42 93t-96.5 60t-103.5 19q-112 0 -199 -71t-129 -173.5t-42 -211.5zM604 1520h182l66 -258h-143z" />
<glyph unicode="&#xe1;" horiz-adv-x="1177" d="M106 432q0 90 22.5 181.5t68 174.5t107.5 147.5t148 103t183 38.5q83 0 167 -36t124 -101l16 111h188l-86 -607q-14 -96 -14 -165q0 -34 4 -60t14.5 -52.5t34 -41t58.5 -14.5l-70 -131q-83 0 -134.5 42.5t-90.5 124.5q-144 -167 -365 -167q-73 0 -135.5 25t-106 68 t-74 101t-45 123t-14.5 135zM289 459q0 -133 68 -222.5t196 -89.5q43 0 106 21t118 60.5t63 82.5q11 50 24 174q2 17 16.5 108.5t20.5 139.5v10q0 52 -42 93t-96.5 60t-103.5 19q-112 0 -199 -71t-129 -173.5t-42 -211.5zM666 1253l137 258h182l-176 -258h-143z" />
<glyph unicode="&#xe2;" horiz-adv-x="1177" d="M106 432q0 90 22.5 181.5t68 174.5t107.5 147.5t148 103t183 38.5q83 0 167 -36t124 -101l16 111h188l-86 -607q-14 -96 -14 -165q0 -34 4 -60t14.5 -52.5t34 -41t58.5 -14.5l-70 -131q-83 0 -134.5 42.5t-90.5 124.5q-144 -167 -365 -167q-73 0 -135.5 25t-106 68 t-74 101t-45 123t-14.5 135zM289 459q0 -133 68 -222.5t196 -89.5q43 0 106 21t118 60.5t63 82.5q11 50 24 174q2 17 16.5 108.5t20.5 139.5v10q0 52 -42 93t-96.5 60t-103.5 19q-112 0 -199 -71t-129 -173.5t-42 -211.5zM553 1253l160 275h164l81 -275h-116l-62 179 l-108 -179h-119z" />
<glyph unicode="&#xe3;" horiz-adv-x="1206" d="M106 432q0 90 22.5 181.5t68 174.5t107.5 147.5t148 103t183 38.5q83 0 167 -36t124 -101l16 111h188l-86 -607q-14 -96 -14 -165q0 -34 4 -60t14.5 -52.5t34 -41t58.5 -14.5l-70 -131q-83 0 -134.5 42.5t-90.5 124.5q-144 -167 -365 -167q-73 0 -135.5 25t-106 68 t-74 101t-45 123t-14.5 135zM289 459q0 -133 68 -222.5t196 -89.5q43 0 106 21t118 60.5t63 82.5q11 50 24 174q2 17 16.5 108.5t20.5 139.5v10q0 52 -42 93t-96.5 60t-103.5 19q-112 0 -199 -71t-129 -173.5t-42 -211.5zM414 1346q38 65 110.5 106t147.5 41q48 0 128 -30.5 t124 -30.5t74 15t55 50l112 -59q-37 -63 -95 -102.5t-126 -39.5q-58 0 -139.5 32t-126.5 32q-102 0 -162 -84z" />
<glyph unicode="&#xe4;" horiz-adv-x="1177" d="M106 432q0 90 22.5 181.5t68 174.5t107.5 147.5t148 103t183 38.5q83 0 167 -36t124 -101l16 111h188l-86 -607q-14 -96 -14 -165q0 -34 4 -60t14.5 -52.5t34 -41t58.5 -14.5l-70 -131q-83 0 -134.5 42.5t-90.5 124.5q-144 -167 -365 -167q-73 0 -135.5 25t-106 68 t-74 101t-45 123t-14.5 135zM289 459q0 -133 68 -222.5t196 -89.5q43 0 106 21t118 60.5t63 82.5q11 50 24 174q2 17 16.5 108.5t20.5 139.5v10q0 52 -42 93t-96.5 60t-103.5 19q-112 0 -199 -71t-129 -173.5t-42 -211.5zM485 1376q0 43 34.5 78t78.5 35q35 0 59.5 -24.5 t24.5 -61.5q0 -44 -34.5 -77.5t-78.5 -33.5q-36 0 -60 24t-24 60zM901 1376q0 44 34.5 78.5t78.5 34.5q37 0 61.5 -24.5t24.5 -61.5q0 -44 -34.5 -77.5t-78.5 -33.5q-37 0 -61.5 23.5t-24.5 60.5z" />
<glyph unicode="&#xe5;" horiz-adv-x="1177" d="M106 432q0 90 22.5 181.5t68 174.5t107.5 147.5t148 103t183 38.5q83 0 167 -36t124 -101l16 111h188l-86 -607q-14 -96 -14 -165q0 -34 4 -60t14.5 -52.5t34 -41t58.5 -14.5l-70 -131q-83 0 -134.5 42.5t-90.5 124.5q-144 -167 -365 -167q-73 0 -135.5 25t-106 68 t-74 101t-45 123t-14.5 135zM289 459q0 -133 68 -222.5t196 -89.5q43 0 106 21t118 60.5t63 82.5q11 50 24 174q2 17 16.5 108.5t20.5 139.5v10q0 52 -42 93t-96.5 60t-103.5 19q-112 0 -199 -71t-129 -173.5t-42 -211.5zM567 1360q0 83 62.5 143t144.5 60q67 0 111.5 -42.5 t44.5 -109.5q0 -82 -61.5 -143.5t-143.5 -61.5q-68 0 -113 43.5t-45 110.5zM655 1374q0 -32 23 -56t55 -24q40 0 74.5 32t34.5 73q0 34 -24 57t-58 23q-40 0 -72.5 -32t-32.5 -73z" />
<glyph unicode="&#xe6;" horiz-adv-x="1646" d="M106 272q0 167 121.5 289.5t288.5 122.5q61 0 141 -23t119 -57q8 54 8 82q0 236 -213 236q-133 0 -282 -111l-39 123q71 63 169 101t191 38q231 0 297 -215q72 101 176 158t224 57q137 0 220 -79.5t83 -215.5q0 -82 -41 -145.5t-107 -99.5t-140.5 -54t-150.5 -18 q-140 0 -235 65q-8 -66 -8 -100q0 -77 28 -143.5t86.5 -110t137.5 -43.5q78 0 162.5 32.5t140.5 86.5l47 -127q-65 -66 -170.5 -103.5t-204.5 -37.5q-102 0 -185.5 40t-135.5 121q-76 -72 -192 -118t-220 -46q-142 0 -229 78t-87 217zM272 299q0 -85 54 -134.5t139 -49.5 q78 0 160 37.5t139 95.5q-12 61 -12 125q0 30 4 92q-40 43 -102.5 66.5t-125.5 23.5q-101 0 -178.5 -78t-77.5 -178zM967 651q29 -27 92 -42t112 -15q39 0 76 5t76 18.5t67.5 34t47 54.5t18.5 78q0 69 -50.5 109.5t-121.5 40.5q-221 0 -317 -283z" />
<glyph unicode="&#xe7;" horiz-adv-x="1046" d="M106 430q0 122 43 237.5t117.5 205t184.5 144t235 54.5q92 0 185.5 -36t144.5 -103l-82 -119q-39 49 -109 75.5t-139 26.5q-108 0 -203 -66t-149.5 -168.5t-54.5 -209.5q0 -136 79 -234t211 -98q71 0 151 29.5t132 75.5l51 -119q-118 -106 -348 -143l-131 -269l-168 15 l168 262q-153 34 -235.5 156t-82.5 284z" />
<glyph unicode="&#xe8;" horiz-adv-x="999" d="M106 414q0 96 24 191t71.5 179.5t113 149.5t155.5 103t192 38q130 0 215.5 -78.5t85.5 -208.5q0 -68 -25.5 -124t-68 -92.5t-99 -61.5t-116 -36t-122.5 -11q-149 0 -243 63q-6 -99 -6 -102q0 -121 67.5 -208t184.5 -87q79 0 163 32.5t138 86.5l47 -127 q-65 -66 -170.5 -103.5t-204.5 -37.5q-190 0 -296 121t-106 313zM319 651q29 -27 92.5 -42t112.5 -15q39 0 76 5t76 18.5t67.5 34t47 54.5t18.5 78q0 69 -50.5 109.5t-121.5 40.5q-222 0 -318 -283zM514 1520h182l66 -258h-146z" />
<glyph unicode="&#xe9;" horiz-adv-x="999" d="M106 414q0 96 24 191t71.5 179.5t113 149.5t155.5 103t192 38q130 0 215.5 -78.5t85.5 -208.5q0 -68 -25.5 -124t-68 -92.5t-99 -61.5t-116 -36t-122.5 -11q-149 0 -243 63q-6 -99 -6 -102q0 -121 67.5 -208t184.5 -87q79 0 163 32.5t138 86.5l47 -127 q-65 -66 -170.5 -103.5t-204.5 -37.5q-190 0 -296 121t-106 313zM319 651q29 -27 92.5 -42t112.5 -15q39 0 76 5t76 18.5t67.5 34t47 54.5t18.5 78q0 69 -50.5 109.5t-121.5 40.5q-222 0 -318 -283zM629 1257l129 259h190l-176 -259h-143z" />
<glyph unicode="&#xea;" horiz-adv-x="999" d="M106 414q0 96 24 191t71.5 179.5t113 149.5t155.5 103t192 38q130 0 215.5 -78.5t85.5 -208.5q0 -68 -25.5 -124t-68 -92.5t-99 -61.5t-116 -36t-122.5 -11q-149 0 -243 63q-6 -99 -6 -102q0 -121 67.5 -208t184.5 -87q79 0 163 32.5t138 86.5l47 -127 q-65 -66 -170.5 -103.5t-204.5 -37.5q-190 0 -296 121t-106 313zM319 651q29 -27 92.5 -42t112.5 -15q39 0 76 5t76 18.5t67.5 34t47 54.5t18.5 78q0 69 -50.5 109.5t-121.5 40.5q-222 0 -318 -283zM463 1253l160 275h163l82 -275h-116l-62 179l-108 -179h-119z" />
<glyph unicode="&#xeb;" horiz-adv-x="1040" d="M106 414q0 96 24 191t71.5 179.5t113 149.5t155.5 103t192 38q130 0 215.5 -78.5t85.5 -208.5q0 -68 -25.5 -124t-68 -92.5t-99 -61.5t-116 -36t-122.5 -11q-149 0 -243 63q-6 -99 -6 -102q0 -121 67.5 -208t184.5 -87q79 0 163 32.5t138 86.5l47 -127 q-65 -66 -170.5 -103.5t-204.5 -37.5q-190 0 -296 121t-106 313zM319 651q29 -27 92.5 -42t112.5 -15q39 0 76 5t76 18.5t67.5 34t47 54.5t18.5 78q0 69 -50.5 109.5t-121.5 40.5q-222 0 -318 -283zM367 1374q0 44 34 78.5t78 34.5q35 0 60.5 -24.5t25.5 -59.5 q0 -45 -34.5 -79t-79.5 -34q-36 0 -60 24t-24 60zM782 1374q0 44 35.5 78.5t79.5 34.5q35 0 59.5 -24.5t24.5 -59.5q0 -45 -34 -79t-79 -34q-36 0 -61 24t-25 60z" />
<glyph unicode="&#xec;" horiz-adv-x="421" d="M88 0l148 1053h163l-147 -1053h-164zM172 1518h182l66 -258h-146z" />
<glyph unicode="&#xed;" horiz-adv-x="448" d="M88 0l148 1053h163l-147 -1053h-164zM281 1260l139 258h182l-176 -258h-145z" />
<glyph unicode="&#xee;" horiz-adv-x="458" d="M88 0l148 1053h163l-147 -1053h-164zM143 1253l160 275h164l82 -275h-109l-67 183l-119 -183h-111z" />
<glyph unicode="&#xef;" horiz-adv-x="442" d="M59 1374q0 44 34.5 78.5t78.5 34.5q35 0 59.5 -24.5t24.5 -59.5q0 -45 -34 -79t-79 -34q-36 0 -60 24t-24 60zM90 0l148 1053h163l-147 -1053h-164zM475 1374q0 44 34.5 78.5t78.5 34.5q37 0 61.5 -24.5t24.5 -59.5q0 -45 -34 -79t-79 -34q-37 0 -61.5 23.5t-24.5 60.5z " />
<glyph unicode="&#xf0;" horiz-adv-x="933" d="M106 344q0 94 30 185t84 164t137.5 118t181.5 45q65 0 104 -29l-129 263l-178 -109l-41 78l186 112l-112 254h178q14 -28 76 -165l163 100l41 -78l-165 -100q16 -34 61.5 -125t68.5 -142t53.5 -129.5t44 -148.5t13.5 -139q0 -129 -58 -247t-165.5 -194.5t-237.5 -76.5 q-154 0 -245 104t-91 260zM258 360q0 -101 52 -176t149 -75q89 0 156.5 61t98.5 145t31 170q0 106 -49.5 175t-150.5 69q-86 -1 -154 -60.5t-100.5 -142t-32.5 -166.5z" />
<glyph unicode="&#xf1;" horiz-adv-x="1067" d="M84 0l147 1053h166l-24 -176q40 84 129.5 141t181.5 57q150 0 224.5 -82t74.5 -233q0 -35 -8 -109l-92 -651h-160l76 549q10 62 10 115q0 225 -199 225q-53 0 -97.5 -21t-75 -54t-54 -79t-37 -91.5t-20.5 -94.5l-78 -549h-164zM305 1346q38 65 110.5 106t147.5 41 q48 0 128 -30.5t124 -30.5q83 0 129 65l113 -59q-37 -63 -95 -102.5t-126 -39.5q-58 0 -140 32t-127 32q-101 0 -161 -84z" />
<glyph unicode="&#xf2;" horiz-adv-x="1122" d="M106 420q0 95 26 189.5t76 176.5t118 145t158 99.5t190 36.5q188 0 298.5 -127t110.5 -319q0 -95 -25.5 -189t-75 -176.5t-116.5 -145.5t-156.5 -100t-189.5 -37q-189 0 -301.5 128t-112.5 319zM283 446q0 -60 15.5 -117t46 -104.5t81.5 -76.5t115 -29q68 0 128.5 30 t103 79.5t73.5 112t46 129t15 128.5t-15 118t-44.5 102.5t-80 74t-116.5 27.5t-125.5 -30t-102.5 -79t-75.5 -111t-48.5 -127.5t-16 -126.5zM559 1518h182l66 -258h-143z" />
<glyph unicode="&#xf3;" horiz-adv-x="1122" d="M106 420q0 95 26 189.5t76 176.5t118 145t158 99.5t190 36.5q188 0 298.5 -127t110.5 -319q0 -95 -25.5 -189t-75 -176.5t-116.5 -145.5t-156.5 -100t-189.5 -37q-189 0 -301.5 128t-112.5 319zM283 446q0 -60 15.5 -117t46 -104.5t81.5 -76.5t115 -29q68 0 128.5 30 t103 79.5t73.5 112t46 129t15 128.5t-15 118t-44.5 102.5t-80 74t-116.5 27.5t-125.5 -30t-102.5 -79t-75.5 -111t-48.5 -127.5t-16 -126.5zM618 1260l140 258h182l-176 -258h-146z" />
<glyph unicode="&#xf4;" horiz-adv-x="1122" d="M106 420q0 95 26 189.5t76 176.5t118 145t158 99.5t190 36.5q188 0 298.5 -127t110.5 -319q0 -95 -25.5 -189t-75 -176.5t-116.5 -145.5t-156.5 -100t-189.5 -37q-189 0 -301.5 128t-112.5 319zM283 446q0 -60 15.5 -117t46 -104.5t81.5 -76.5t115 -29q68 0 128.5 30 t103 79.5t73.5 112t46 129t15 128.5t-15 118t-44.5 102.5t-80 74t-116.5 27.5t-125.5 -30t-102.5 -79t-75.5 -111t-48.5 -127.5t-16 -126.5zM498 1253l159 275h164l82 -275h-117l-61 179l-109 -179h-118z" />
<glyph unicode="&#xf5;" horiz-adv-x="1173" d="M143 420q0 95 26 189.5t76 176.5t118 145t158 99.5t190 36.5q188 0 299.5 -127t111.5 -319q0 -95 -25.5 -189t-75.5 -176.5t-117 -145.5t-157 -100t-190 -37q-189 0 -301.5 128t-112.5 319zM322 446q0 -61 15.5 -117.5t45.5 -104t80.5 -76.5t114.5 -29q68 0 128.5 30 t103 79.5t73.5 112t46 129t15 128.5t-15 118t-44.5 102.5t-79.5 74t-115 27.5q-66 0 -125.5 -30t-102.5 -79t-75.5 -111t-48.5 -127.5t-16 -126.5zM385 1313q40 64 112.5 104.5t147.5 40.5q46 0 126 -29.5t126 -29.5q43 0 72.5 15t54.5 50l113 -59q-35 -63 -94 -102 t-128 -39q-57 0 -138.5 31.5t-127.5 31.5q-101 0 -160 -84z" />
<glyph unicode="&#xf6;" horiz-adv-x="1122" d="M106 420q0 95 26 189.5t76 176.5t118 145t158 99.5t190 36.5q188 0 298.5 -127t110.5 -319q0 -95 -25.5 -189t-75 -176.5t-116.5 -145.5t-156.5 -100t-189.5 -37q-189 0 -301.5 128t-112.5 319zM283 446q0 -60 15.5 -117t46 -104.5t81.5 -76.5t115 -29q68 0 128.5 30 t103 79.5t73.5 112t46 129t15 128.5t-15 118t-44.5 102.5t-80 74t-116.5 27.5t-125.5 -30t-102.5 -79t-75.5 -111t-48.5 -127.5t-16 -126.5zM412 1374q0 44 33.5 78.5t76.5 34.5q37 0 61.5 -24.5t24.5 -59.5q0 -45 -34 -79t-78 -34q-36 0 -60 24t-24 60zM827 1374 q0 44 34.5 78.5t78.5 34.5q37 0 61.5 -24.5t24.5 -59.5q0 -45 -34 -79t-79 -34q-37 0 -61.5 23.5t-24.5 60.5z" />
<glyph unicode="&#xf7;" horiz-adv-x="862" d="M72 520l20 156h817l-22 -156h-815zM322 172q0 51 38 89t89 38q40 0 67 -27t27 -67q0 -51 -38 -89t-89 -38q-40 0 -67 27t-27 67zM432 973q0 49 38.5 87t88.5 38q41 0 68.5 -26.5t27.5 -67.5q0 -51 -38 -89t-89 -38q-40 0 -68 27.5t-28 68.5z" />
<glyph unicode="&#xf8;" horiz-adv-x="1177" d="M135 424q0 119 41 234.5t113.5 207t180.5 147.5t232 56q81 0 156 -35l143 264h91l-164 -299q93 -62 139.5 -162t46.5 -219q0 -94 -25.5 -187.5t-75.5 -175t-117.5 -144.5t-157.5 -99.5t-189 -36.5q-91 0 -162 35l-137 -246h-90l157 281q-92 62 -137 161.5t-45 217.5z M313 451q0 -153 80 -248l395 688q-48 31 -106 31q-81 0 -152.5 -45.5t-117.5 -115.5t-72.5 -152t-26.5 -158zM457 154q50 -33 112 -33q69 0 129.5 30t103.5 79.5t74.5 112.5t46.5 129.5t15 129.5q0 154 -82 246z" />
<glyph unicode="&#xf9;" horiz-adv-x="1011" d="M84 305q0 37 8 111l88 637h164l-78 -559q-8 -74 -8 -115q0 -225 195 -225q66 0 119 30.5t86 82t53.5 108t29.5 119.5l78 559h164l-147 -1053h-164l24 176q-40 -83 -130.5 -141t-182.5 -58q-152 0 -225.5 86.5t-73.5 241.5zM463 1518h182l66 -258h-144z" />
<glyph unicode="&#xfa;" horiz-adv-x="1011" d="M84 305q0 37 8 111l88 637h164l-78 -559q-8 -74 -8 -115q0 -225 195 -225q66 0 119 30.5t86 82t53.5 108t29.5 119.5l78 559h164l-147 -1053h-164l24 176q-40 -83 -130.5 -141t-182.5 -58q-152 0 -225.5 86.5t-73.5 241.5zM518 1260l137 258h183l-176 -258h-144z" />
<glyph unicode="&#xfb;" horiz-adv-x="1011" d="M84 305q0 37 8 111l88 637h164l-78 -559q-8 -74 -8 -115q0 -225 195 -225q66 0 119 30.5t86 82t53.5 108t29.5 119.5l78 559h164l-147 -1053h-164l24 176q-40 -83 -130.5 -141t-182.5 -58q-152 0 -225.5 86.5t-73.5 241.5zM412 1253l159 275h164l82 -275h-117l-61 179 l-109 -179h-118z" />
<glyph unicode="&#xfc;" horiz-adv-x="1011" d="M84 305q0 37 8 111l88 637h164l-78 -559q-8 -74 -8 -115q0 -225 195 -225q66 0 119 30.5t86 82t53.5 108t29.5 119.5l78 559h164l-147 -1053h-164l24 176q-40 -83 -130.5 -141t-182.5 -58q-152 0 -225.5 86.5t-73.5 241.5zM326 1374q0 44 34 78.5t78 34.5 q35 0 59.5 -24.5t24.5 -59.5q0 -45 -34 -79t-78 -34q-36 0 -60 24t-24 60zM741 1374q0 44 34.5 78.5t78.5 34.5q37 0 61.5 -24.5t24.5 -59.5q0 -45 -34 -79t-79 -34q-37 0 -61.5 23.5t-24.5 60.5z" />
<glyph unicode="&#xfd;" horiz-adv-x="989" d="M-8 -319l82 126q59 -34 104 -34q42 0 88.5 53t75 110t43.5 105l-205 1012h176l148 -779l364 779h170q-40 -83 -221.5 -471t-286.5 -592q-3 -6 -22.5 -44t-26 -50t-26.5 -48t-31 -50.5t-32.5 -44.5t-37 -44t-39.5 -34.5t-45.5 -29.5t-48.5 -16.5t-55 -7.5q-36 0 -94 18.5 t-80 41.5zM555 1260l137 258h182l-176 -258h-143z" />
<glyph unicode="&#xfe;" horiz-adv-x="1112" d="M53 -285l242 1719h162l-66 -463q55 45 141 74.5t158 29.5q182 0 283.5 -121.5t101.5 -308.5q0 -90 -23.5 -183.5t-70.5 -179.5t-111 -153.5t-151 -108t-184 -40.5q-83 0 -143.5 27t-123.5 85l-53 -377h-162zM291 258q35 -53 98.5 -86t128.5 -33q115 0 205.5 73.5 t135 179.5t44.5 218q0 132 -73.5 221t-202.5 89q-61 0 -141.5 -32t-116.5 -77z" />
<glyph unicode="&#xff;" horiz-adv-x="989" d="M-8 -319l82 126q59 -34 104 -34q42 0 88.5 53t75 110t43.5 105l-205 1012h176l148 -779l364 779h170q-40 -83 -221.5 -471t-286.5 -592q-3 -6 -22.5 -44t-26 -50t-26.5 -48t-31 -50.5t-32.5 -44.5t-37 -44t-39.5 -34.5t-45.5 -29.5t-48.5 -16.5t-55 -7.5q-36 0 -94 18.5 t-80 41.5zM344 1374q0 44 34.5 78.5t78.5 34.5q37 0 61.5 -24.5t24.5 -59.5q0 -45 -34 -79t-79 -34q-37 0 -61.5 23.5t-24.5 60.5zM760 1374q0 44 35 78.5t79 34.5q35 0 59.5 -24.5t24.5 -59.5q0 -45 -34 -79t-78 -34q-36 0 -61 24t-25 60z" />
<glyph unicode="&#x152;" horiz-adv-x="1951" d="M98 514q0 140 46.5 277t128.5 247.5t208 179t273 68.5q112 0 201.5 -54.5t142.5 -154.5l24 176h803l-22 -163h-629l-51 -357h506l-21 -149h-506l-59 -420h629l-23 -164h-803l29 199q-77 -97 -181.5 -152t-222.5 -55q-112 0 -203 40.5t-149.5 111.5t-89.5 165.5t-31 204.5 zM287 524q0 -77 17 -143t52 -120t95.5 -85t140.5 -31q89 0 164.5 38t126 99.5t86 141.5t51.5 162.5t16 163.5q0 77 -17 143t-52 120.5t-95.5 85.5t-140.5 31q-89 0 -164 -38t-125.5 -100t-86 -142t-52 -162.5t-16.5 -163.5z" />
<glyph unicode="&#x153;" horiz-adv-x="1808" d="M106 420q0 95 26 189.5t76 176.5t118 145t158 99.5t190 36.5q127 0 220 -60t142 -165q75 105 182 165t238 60q133 0 220 -77.5t87 -209.5q0 -85 -39 -150t-103.5 -102t-138.5 -55t-153 -18q-153 0 -246 65q-6 -99 -6 -102q0 -123 69.5 -210t188.5 -87q75 0 157 33t138 86 l47 -125q-65 -66 -170.5 -104t-204.5 -38q-130 0 -221 59t-138 163q-77 -103 -185.5 -162.5t-237.5 -59.5q-189 0 -301.5 128t-112.5 319zM283 446q0 -60 15.5 -117t46 -104.5t81.5 -76.5t115 -29q68 0 128.5 30t103 79.5t73.5 112t46 129t15 128.5t-15 118t-44.5 102.5 t-80 74t-116.5 27.5t-125.5 -30t-102.5 -79t-75.5 -111t-48.5 -127.5t-16 -126.5zM1114 645q30 -27 93 -43t112 -16q50 0 96 9t89.5 29t70 59.5t26.5 92.5q0 70 -50.5 111t-121.5 41q-217 0 -315 -283z" />
<glyph unicode="&#x178;" horiz-adv-x="1083" d="M109 1253h180l258 -512l403 512h180l-520 -673l-80 -580h-176l82 580zM348 1503q0 44 34.5 78.5t78.5 34.5q35 0 59.5 -24.5t24.5 -59.5q0 -44 -34.5 -78.5t-78.5 -34.5q-35 0 -59.5 24.5t-24.5 59.5zM764 1503q0 44 34.5 78.5t78.5 34.5q37 0 61.5 -24.5t24.5 -59.5 q0 -44 -34.5 -78.5t-78.5 -34.5q-37 0 -61.5 23.5t-24.5 60.5z" />
<glyph unicode="&#x2c6;" horiz-adv-x="1112" d="M530 1253l160 275h164l82 -275h-117l-61 179l-109 -179h-119z" />
<glyph unicode="&#x2dc;" horiz-adv-x="1048" d="M270 1382q38 64 110.5 105t147.5 41q48 0 128 -31t124 -31q83 0 129 66l113 -59q-38 -62 -96 -102t-125 -40q-58 0 -139.5 32t-126.5 32q-102 0 -162 -82z" />
<glyph unicode="&#x2000;" horiz-adv-x="855" />
<glyph unicode="&#x2001;" horiz-adv-x="1710" />
<glyph unicode="&#x2002;" horiz-adv-x="855" />
<glyph unicode="&#x2003;" horiz-adv-x="1710" />
<glyph unicode="&#x2004;" horiz-adv-x="570" />
<glyph unicode="&#x2005;" horiz-adv-x="427" />
<glyph unicode="&#x2006;" horiz-adv-x="285" />
<glyph unicode="&#x2007;" horiz-adv-x="285" />
<glyph unicode="&#x2008;" horiz-adv-x="213" />
<glyph unicode="&#x2009;" horiz-adv-x="342" />
<glyph unicode="&#x200a;" horiz-adv-x="95" />
<glyph unicode="&#x2010;" horiz-adv-x="989" d="M100 518l21 154h784l-20 -154h-785z" />
<glyph unicode="&#x2011;" horiz-adv-x="989" d="M100 518l21 154h784l-20 -154h-785z" />
<glyph unicode="&#x2012;" horiz-adv-x="989" d="M100 518l21 154h784l-20 -154h-785z" />
<glyph unicode="&#x2013;" horiz-adv-x="1091" d="M84 537l22 155h977l-22 -155h-977z" />
<glyph unicode="&#x2014;" horiz-adv-x="1644" d="M84 537l22 155h1522l-22 -155h-1522z" />
<glyph unicode="&#x2018;" horiz-adv-x="352" d="M100 1053q0 83 60 172.5t139 109.5l29 -78q-40 -12 -70 -43.5t-37 -72.5q45 9 78 -15.5t33 -70.5q0 -50 -40.5 -88.5t-90.5 -38.5q-52 0 -76.5 36t-24.5 89z" />
<glyph unicode="&#x2019;" horiz-adv-x="350" d="M117 1176q0 45 37 83.5t82 38.5q30 0 45 -18q33 -11 50 -43t17 -70q0 -80 -62.5 -168t-138.5 -106q-11 28 -26 78q39 10 67 42t39 74q-47 -9 -78.5 15.5t-31.5 73.5z" />
<glyph unicode="&#x201a;" horiz-adv-x="417" d="M117 119q0 53 42 98t95 45q31 0 47 -16q41 -11 61.5 -48.5t20.5 -84.5q0 -89 -68.5 -189t-152.5 -123q-8 18 -22 52t-15 38q43 13 74.5 47.5t42.5 77.5q-54 -8 -89.5 20.5t-35.5 82.5z" />
<glyph unicode="&#x201c;" horiz-adv-x="835" d="M100 1104q0 53 17.5 103t58 86t94.5 36q46 0 79.5 -32t33.5 -76q0 -57 -40 -99.5t-97 -42.5q-13 0 -21 2v-8q0 -39 22 -72t58 -45l-59 -90q-63 18 -104.5 92.5t-41.5 145.5zM512 1104q0 53 17.5 103t58 86t94.5 36q46 0 79.5 -32t33.5 -76q0 -58 -40 -100t-96 -42 q-14 0 -22 2v-8q0 -39 22.5 -72t59.5 -45l-62 -90q-63 18 -104 92.5t-41 145.5z" />
<glyph unicode="&#x201d;" horiz-adv-x="722" d="M121 1188q0 55 48.5 96t104.5 41q57 0 84 -41.5t27 -101.5q0 -59 -30.5 -127t-83.5 -122t-111 -69l-35 92q42 12 74 46t43 77q-55 -7 -88 23t-33 86zM518 1188q0 55 49 96t105 41t82 -41.5t26 -101.5t-30 -127.5t-82.5 -121.5t-110.5 -69l-35 92q43 12 74.5 46t40.5 77 q-54 -7 -86.5 23t-32.5 86z" />
<glyph unicode="&#x201e;" horiz-adv-x="782" d="M74 119q0 53 42 98t95 45q30 0 49 -16q40 -11 61 -49t21 -84q0 -89 -69.5 -189t-153.5 -123q-4 9 -37 90q43 13 74.5 47.5t42.5 77.5q-54 -8 -89.5 20.5t-35.5 82.5zM471 119q0 53 42 98t95 45q31 0 47 -16q41 -11 61.5 -48.5t20.5 -84.5q0 -89 -69 -189t-154 -123 q-32 84 -35 90q43 13 74.5 47.5t42.5 77.5q-54 -8 -89.5 20.5t-35.5 82.5z" />
<glyph unicode="&#x2022;" horiz-adv-x="440" d="M143 631q0 67 50.5 117.5t117.5 50.5q55 0 91 -35t36 -90q0 -66 -51 -116t-117 -50q-54 0 -90.5 34.5t-36.5 88.5z" />
<glyph unicode="&#x2026;" horiz-adv-x="1679" d="M90 88q0 58 43.5 101.5t102.5 43.5q46 0 78 -31t32 -77q0 -58 -44 -101.5t-103 -43.5q-46 0 -77.5 31t-31.5 77zM727 88q0 58 44 101.5t101 43.5q47 0 79 -31t32 -77q0 -59 -43.5 -102t-101.5 -43q-46 0 -78.5 31.5t-32.5 76.5zM1366 88q0 58 44 101.5t101 43.5 q47 0 79 -31t32 -77q0 -58 -44 -101.5t-101 -43.5q-47 0 -79 31t-32 77z" />
<glyph unicode="&#x202f;" horiz-adv-x="342" />
<glyph unicode="&#x2039;" horiz-adv-x="579" d="M84 555l293 428h178l-287 -428l166 -428h-178z" />
<glyph unicode="&#x203a;" horiz-adv-x="579" d="M84 125l287 428l-166 428h178l172 -428l-293 -428h-178z" />
<glyph unicode="&#x205f;" horiz-adv-x="427" />
<glyph unicode="&#x20ac;" horiz-adv-x="1347" d="M88 453l14 96h154q0 67 18 135h-153l14 96h164q78 213 263.5 351.5t408.5 138.5q93 0 194 -35t158 -96l-96 -148q-46 50 -123.5 81.5t-147.5 31.5q-151 0 -277.5 -90t-191.5 -234h406l-14 -96h-426q-17 -61 -17 -135h424l-14 -96h-400q28 -141 129 -224.5t244 -83.5 q77 0 160 30t143 79l52 -150q-73 -60 -181.5 -93.5t-210.5 -33.5q-212 0 -357 132.5t-167 343.5h-170z" />
<glyph unicode="&#x25fc;" horiz-adv-x="1054" d="M0 0v1055h1055v-1055h-1055z" />
<glyph unicode="&#xfb03;" horiz-adv-x="1579" d="M100 -369l179 1276h-148l21 146h147q14 103 62.5 193t134 150t190.5 60q125 -4 188 -59l-69 -115q-48 29 -113 29q-99 0 -157 -76t-72 -182h311h2h146q11 76 42 147t78.5 129t116.5 92.5t148 34.5q49 0 103 -15t87 -44l-70 -115q-48 29 -112 29q-99 0 -157.5 -76 t-72.5 -182h310h4h160l-150 -1053h-164l129 907h-311l-178 -1276h-162l178 1276h-145h-2h-316l-178 -1276h-160z" />
</font>
</defs>
</svg>
